<?xml version="1.0" encoding="UTF-8" standalone="no"?>
<svg
   viewBox="0 0 230.14805 108.05078"
   version="1.1"
   id="svg94"
   sodipodi:docname="conselleria.svg"
   inkscape:version="1.3.2 (091e20e, 2023-11-25, custom)"
   width="230.14806"
   height="108.05078"
   xmlns:inkscape="http://www.inkscape.org/namespaces/inkscape"
   xmlns:sodipodi="http://sodipodi.sourceforge.net/DTD/sodipodi-0.dtd"
   xmlns="http://www.w3.org/2000/svg"
   xmlns:svg="http://www.w3.org/2000/svg"
   xmlns:rdf="http://www.w3.org/1999/02/22-rdf-syntax-ns#"
   xmlns:cc="http://creativecommons.org/ns#"
   xmlns:dc="http://purl.org/dc/elements/1.1/">
  <sodipodi:namedview
     id="namedview94"
     pagecolor="#ffffff"
     bordercolor="#000000"
     borderopacity="0.25"
     inkscape:showpageshadow="2"
     inkscape:pageopacity="0.0"
     inkscape:pagecheckerboard="0"
     inkscape:deskcolor="#d1d1d1"
     showgrid="false"
     inkscape:zoom="0.82259369"
     inkscape:cx="-178.09522"
     inkscape:cy="-147.70354"
     inkscape:window-width="1920"
     inkscape:window-height="1009"
     inkscape:window-x="-8"
     inkscape:window-y="-8"
     inkscape:window-maximized="1"
     inkscape:current-layer="svg94" />
  <defs
     id="defs1">
    <style
       id="style1">.cls-1{fill:#c80f2e;}</style>
  </defs>
  <title
     id="title1">pantallaMesa de trabajo 1 copia 15</title>
  <g
     id="VERSIONES"
     transform="translate(-195.37,-514.29)">
    <path
       class="cls-1"
       d="m 253,555.86 a 10.15,10.15 0 0 0 7.46,-2.73 v -6.47 h -7.88 v 2.44 H 258 v 2.82 a 7.71,7.71 0 0 1 -4.92,1.47 7.06,7.06 0 0 1 -0.32,-14.11 6.42,6.42 0 0 1 5.49,2.54 l 1.88,-1.75 a 8.92,8.92 0 0 0 -7.31,-3.26 9.53,9.53 0 1 0 0.26,19.05 z"
       id="path74" />
    <path
       class="cls-1"
       d="m 341.35,536.78 -7.8,18.87 h 2.7 l 1.54,-3.79 h 7.95 l 1.54,3.79 H 350 l -7.8,-18.87 z m -2.57,12.64 3,-7.31 3,7.31 z"
       id="path75" />
    <path
       class="cls-1"
       d="m 388.61,555.65 1.53,-3.79 h 8 l 1.53,3.79 h 2.7 l -7.8,-18.87 h -0.83 l -7.8,18.87 z m 5.51,-13.54 v 0 l 3,7.3 h -6 z"
       id="path76" />
    <polygon
       class="cls-1"
       points="296.74,555.9 296.74,537.02 294.21,537.02 294.21,550.25 282.36,536.78 281.53,536.78 281.53,555.65 284.05,555.65 284.05,542.42 295.91,555.9 "
       id="polygon76" />
    <polygon
       class="cls-1"
       points="275.7,546.66 267.68,546.66 267.68,539.46 276.66,539.46 276.66,537.02 265.06,537.02 265.06,555.65 277.03,555.65 277.03,553.21 267.68,553.21 267.68,549.07 275.7,549.07 "
       id="polygon77" />
    <polygon
       class="cls-1"
       points="381.6,539.47 387.07,539.47 387.07,537.02 373.48,537.02 373.48,539.47 378.98,539.47 378.98,555.65 381.6,555.65 "
       id="polygon78" />
    <rect
       class="cls-1"
       x="367.39999"
       y="537.02002"
       width="2.6500001"
       height="18.629999"
       id="rect78" />
    <polygon
       class="cls-1"
       points="304.57,549.07 312.58,549.07 312.58,546.66 304.57,546.66 304.57,539.47 313.55,539.47 313.55,537.02 301.94,537.02 301.94,555.65 313.91,555.65 313.91,553.21 304.57,553.21 "
       id="polygon79" />
    <polygon
       class="cls-1"
       points="355.74,537.02 353.11,537.02 353.11,555.65 363.96,555.65 363.96,553.21 355.74,553.21 "
       id="polygon80" />
    <polygon
       class="cls-1"
       points="406.63,539.46 406.63,555.65 409.26,555.65 409.26,539.46 414.93,539.46 414.93,537.02 401.14,537.02 401.14,539.46 "
       id="polygon81" />
    <path
       class="cls-1"
       d="m 327.23,549.76 a 6.07,6.07 0 0 0 3.89,-6 c 0,-4.24 -2.91,-6.77 -7.78,-6.77 h -4.93 v 18.63 H 321 v -5.12 h 2.3 a 11.12,11.12 0 0 0 1.23,-0.06 l 3.49,5.21 h 3.19 z m -4,-1.67 H 321 v -8.63 h 2.2 c 3.48,0 5.18,1.42 5.18,4.33 0,2.91 -1.66,4.3 -5.14,4.3 z"
       id="path81" />
    <polygon
       class="cls-1"
       points="376.21,563.76 376.21,582.63 378.73,582.63 378.73,569.4 390.59,582.88 391.41,582.88 391.41,564 388.89,564 388.89,577.23 377.04,563.76 "
       id="polygon82" />
    <path
       class="cls-1"
       d="m 339,580.37 a 7.06,7.06 0 0 1 -0.13,-14.11 6.45,6.45 0 0 1 5.58,2.89 l 2,-1.48 a 8.85,8.85 0 0 0 -7.61,-3.87 9.52,9.52 0 1 0 8.16,14.93 l -2.09,-1.47 a 6.9,6.9 0 0 1 -5.91,3.11 z"
       id="path82" />
    <path
       class="cls-1"
       d="m 268,563.76 -7.8,18.87 h 2.7 l 1.54,-3.79 h 7.95 l 1.54,3.79 h 2.7 l -7.8,-18.87 z m -2.57,12.64 3,-7.31 3,7.31 z"
       id="path83" />
    <polygon
       class="cls-1"
       points="247.89,564 245.06,564 252.86,582.88 253.69,582.88 261.49,564 258.66,564 253.27,577.39 "
       id="polygon83" />
    <path
       class="cls-1"
       d="m 364.45,563.76 -7.8,18.87 h 2.7 l 1.54,-3.79 h 7.95 l 1.54,3.79 h 2.7 l -7.8,-18.87 z m -2.57,12.64 3,-7.31 3,7.31 z"
       id="path84" />
    <path
       class="cls-1"
       d="m 402.35,563.76 -7.81,18.87 h 2.71 l 1.53,-3.79 h 8 l 1.53,3.79 H 411 l -7.81,-18.87 z m -2.58,12.64 3,-7.31 3,7.31 z"
       id="path85" />
    <polygon
       class="cls-1"
       points="310.5,563.76 310.5,582.63 313.02,582.63 313.02,569.4 324.87,582.88 325.7,582.88 325.7,564 323.18,564 323.18,577.23 311.33,563.76 "
       id="polygon85" />
    <rect
       class="cls-1"
       x="350.87"
       y="564"
       width="2.6500001"
       height="18.629999"
       id="rect85" />
    <polygon
       class="cls-1"
       points="304.67,573.64 296.65,573.64 296.65,566.45 305.63,566.45 305.63,564 294.03,564 294.03,582.63 306,582.63 306,580.19 296.65,580.19 296.65,576.05 304.67,576.05 "
       id="polygon86" />
    <polygon
       class="cls-1"
       points="279.74,582.63 290.59,582.63 290.59,580.19 282.37,580.19 282.37,564 279.74,564 "
       id="polygon87" />
    <polygon
       class="cls-1"
       points="218.42,549.46 216.52,549.46 216.52,551.07 218.42,551.07 218.42,552.97 218.97,552.97 218.97,555.43 219.47,555.43 219.47,552.97 220.03,552.97 220.03,551.07 221.93,551.07 221.93,549.46 220.03,549.46 220.03,547.57 218.42,547.57 "
       id="polygon88" />
    <path
       class="cls-1"
       d="m 202.33,529.72 c 1.63,-2.4 1.9,-2.45 1.9,-2.45 a 2.28,2.28 0 0 0 -2.5,0.94 c -1.61,2.39 -1.88,2.44 -1.88,2.44 a 2.27,2.27 0 0 0 2.48,-0.93 z"
       id="path88" />
    <path
       class="cls-1"
       d="m 212.12,571.9 19.09,19.1 a 26.62,26.62 0 0 0 -7.19,-13.1 l -9,-8.95 z"
       id="path89" />
    <path
       class="cls-1"
       d="m 206.54,577.48 24.81,24.81 a 27.19,27.19 0 0 0 0.51,-5.39 l -22.37,-22.37 z"
       id="path90" />
    <path
       class="cls-1"
       d="m 201,583.07 22.38,22.37 a 28,28 0 0 0 5.39,-0.52 l -24.81,-24.81 z"
       id="path91" />
    <path
       class="cls-1"
       d="m 200.29,536.44 2.79,6.77 -3.49,7.06 a 44,44 0 0 1 3.48,10 c 0.82,4.56 0.16,11.63 0.16,11.63 l 13,-6.56 a 14.28,14.28 0 0 0 2.06,2.62 l 2.94,2.93 10.12,-10.11 -0.67,-0.63 c -4.07,-3.81 -5.81,-7.41 -5.81,-12 v -4.93 l 2.78,-6.74 a 1.33,1.33 0 1 0 -1.79,-1.24 1.34,1.34 0 0 0 0.32,0.86 3.76,3.76 0 0 1 -2.53,2.36 6.4,6.4 0 0 1 3.74,-8.25 6.35,6.35 0 0 1 0.7,-8.63 7.8,7.8 0 0 0 -5.59,1 5.73,5.73 0 0 1 -2.28,-4.58 5.58,5.58 0 0 1 0.13,-1.23 5.28,5.28 0 0 1 -6.75,-2.48 4.53,4.53 0 0 1 -7.63,0 c 0.34,3.75 -0.79,8.16 -4,10.5 l 0.87,1.16 a 13.4,13.4 0 0 0 1.5,-1.31 0.85,0.85 0 0 1 0.67,-0.32 0.76,0.76 0 0 1 0.74,0.76 1,1 0 0 1 -0.14,0.48 3.28,3.28 0 0 0 -0.35,1.47 3.4,3.4 0 0 0 0.32,1.43 l 1.31,-0.62 c -0.61,-1.31 0.43,-2.53 2.09,-3.76 1.18,-0.88 2.43,-1.7 3.34,-1.71 a 1.85,1.85 0 0 1 1.85,1.85 c 0,1.14 -1.13,2.05 -2,2.6 -3.27,2.06 -6.56,3.56 -8.08,7.18 a 13.23,13.23 0 0 0 -0.91,4 4.08,4.08 0 0 1 -1.48,-1.87 1.34,1.34 0 0 0 0.32,-0.86 1.33,1.33 0 1 0 -1.79,1.24 z m 9.36,30.42 -4.65,2.32 a 46.06,46.06 0 0 0 -0.37,-9.21 42.6,42.6 0 0 0 -2.9,-8.9 h 7.9 z m 1.61,-0.81 v -16.59 h -9.47 l 2.94,-6 h 8.74 v 4.62 c 0,1.38 0,4.26 0.22,7.32 a 23.26,23.26 0 0 0 1.83,8.48 z m 17.83,-5.25 -7.82,7.79 -1.8,-1.79 c -3.05,-3 -3.87,-6.79 -4.18,-11.47 -0.14,-2.17 -0.2,-4.53 -0.2,-7.22 v -4.62 h 8.21 v 4.62 c 0,4.89 1.79,8.74 5.79,12.69 z m -23.62,-26.14 c 1.48,-3.78 6.26,-5.66 8.46,-7.22 a 4.26,4.26 0 0 0 1.81,-3.26 3.39,3.39 0 0 0 -3.36,-3.36 c -1.73,0 -4.24,1.95 -5.43,3.13 a 2.31,2.31 0 0 0 -1.26,-1 15,15 0 0 0 1.77,-5.6 6,6 0 0 0 6,-0.79 6.77,6.77 0 0 0 4.86,2.05 h 0.43 a 7.23,7.23 0 0 0 2.48,4.81 10.81,10.81 0 0 0 -2.15,2.39 10.89,10.89 0 0 1 -3.91,3.66 5.61,5.61 0 0 1 -1.77,0.61 7.83,7.83 0 0 1 -0.35,4.43 l 1.39,0.54 a 9.16,9.16 0 0 0 0.63,-3.36 c 0,-0.14 0,-0.27 0,-0.41 a 11.79,11.79 0 0 0 5.35,-4.56 8,8 0 0 1 4.74,-3.55 7.9,7.9 0 0 0 0.12,6.43 7.88,7.88 0 0 0 -3.17,8.93 3.72,3.72 0 0 1 -2.89,-2.34 1.29,1.29 0 0 0 0.43,-1 1.33,1.33 0 1 0 -2.23,1 3.71,3.71 0 0 1 -6.92,0 1.33,1.33 0 1 0 -2.23,-1 1.29,1.29 0 0 0 0.43,1 3.7,3.7 0 0 1 -3.46,2.38 4.07,4.07 0 0 1 -0.52,0 11.56,11.56 0 0 1 0.75,-3.91 z m -0.2,5.39 a 5.21,5.21 0 0 0 4.36,-2.36 5.21,5.21 0 0 0 8.72,0 5.21,5.21 0 0 0 6.41,1.94 l -0.93,2.25 h -19.68 l -0.93,-2.25 a 5.18,5.18 0 0 0 2.05,0.42 z"
       id="path92" />
    <path
       class="cls-1"
       d="m 195.37,588.65 8.95,8.94 a 26.55,26.55 0 0 0 13.1,7.19 l -19.09,-19.09 z"
       id="path93" />
    <path
       class="cls-1"
       d="m 209,519 a 0.86,0.86 0 1 0 0,1.71 0.85,0.85 0 0 0 0.85,-0.85 A 0.86,0.86 0 0 0 209,519 Z"
       id="path94" />
    <path
       style="font-weight:600;line-height:1.3;font-family:Roboto;-inkscape-font-specification:'Roboto Semi-Bold';letter-spacing:0.4px;display:inline;fill:#c8102e"
       d="m 250.79446,601.49664 h 1.61133 q -0.0644,0.85547 -0.47461,1.51758 -0.41015,0.65625 -1.14258,1.03125 -0.73242,0.375 -1.77539,0.375 -0.80273,0 -1.44726,-0.28125 -0.63867,-0.28711 -1.0957,-0.81445 -0.45118,-0.53321 -0.69141,-1.27735 -0.24024,-0.75 -0.24024,-1.68164 v -0.65039 q 0,-0.93164 0.2461,-1.68164 0.24609,-0.75 0.70312,-1.27734 0.46289,-0.5332 1.10743,-0.82031 0.65039,-0.28711 1.45312,-0.28711 1.04297,0 1.76367,0.38672 0.72071,0.38085 1.11914,1.04882 0.39844,0.66797 0.48047,1.53516 h -1.61133 q -0.0469,-0.53906 -0.23437,-0.91406 -0.18164,-0.375 -0.55078,-0.56836 -0.36328,-0.19922 -0.9668,-0.19922 -0.46875,0 -0.82617,0.17578 -0.35156,0.17578 -0.58594,0.52734 -0.23437,0.34571 -0.35156,0.86719 -0.11719,0.51563 -0.11719,1.19531 v 0.66211 q 0,0.65039 0.10547,1.16602 0.10547,0.51562 0.32812,0.87305 0.22266,0.35742 0.57422,0.54492 0.35157,0.1875 0.83789,0.1875 0.5918,0 0.96094,-0.1875 0.375,-0.1875 0.56836,-0.55078 0.19922,-0.36328 0.25195,-0.90235 z m 2.86094,-0.29883 v -0.12304 q 0,-0.69727 0.19922,-1.28321 0.19922,-0.59179 0.58008,-1.02539 0.38086,-0.43359 0.93164,-0.67382 0.55078,-0.2461 1.2539,-0.2461 0.71485,0 1.26563,0.2461 0.55664,0.24023 0.9375,0.67382 0.38086,0.4336 0.58008,1.02539 0.19922,0.58594 0.19922,1.28321 v 0.12304 q 0,0.69141 -0.19922,1.28321 -0.19922,0.58594 -0.58008,1.02539 -0.38086,0.43359 -0.93164,0.67383 -0.55078,0.24023 -1.25977,0.24023 -0.70312,0 -1.25976,-0.24023 -0.55664,-0.24024 -0.9375,-0.67383 -0.38086,-0.43945 -0.58008,-1.02539 -0.19922,-0.5918 -0.19922,-1.28321 z m 1.54688,-0.12304 v 0.12304 q 0,0.41602 0.082,0.7793 0.082,0.36328 0.25195,0.63867 0.16992,0.27539 0.43945,0.4336 0.27539,0.15234 0.65625,0.15234 0.375,0 0.64453,-0.15234 0.26954,-0.15821 0.43946,-0.4336 0.17578,-0.27539 0.25781,-0.63867 0.082,-0.36328 0.082,-0.7793 v -0.12304 q 0,-0.41016 -0.082,-0.76758 -0.082,-0.36328 -0.25781,-0.63867 -0.16992,-0.28125 -0.44531,-0.43946 -0.26954,-0.16406 -0.6504,-0.16406 -0.375,0 -0.64453,0.16406 -0.26953,0.15821 -0.43945,0.43946 -0.16992,0.27539 -0.25195,0.63867 -0.082,0.35742 -0.082,0.76758 z m 7.43711,-1.75781 v 4.98632 h -1.54688 v -6.33984 h 1.45313 z m -0.2461,1.58789 h -0.45703 q 0.006,-0.69141 0.1875,-1.25391 0.18164,-0.5625 0.50977,-0.9668 0.33398,-0.40429 0.79101,-0.62109 0.45703,-0.2168 1.01953,-0.2168 0.45703,0 0.82618,0.12891 0.36914,0.1289 0.63281,0.41015 0.26953,0.28125 0.41015,0.73829 0.14649,0.45117 0.14649,1.11328 v 4.0664 h -1.5586 v -4.07812 q 0,-0.4336 -0.1289,-0.68555 -0.12305,-0.25195 -0.36328,-0.35742 -0.23438,-0.10547 -0.58008,-0.10547 -0.35742,0 -0.62695,0.14649 -0.26368,0.14062 -0.44532,0.39257 -0.17578,0.25196 -0.26953,0.58008 -0.0937,0.32813 -0.0937,0.70899 z m 9.31797,1.66406 q 0,-0.19922 -0.10547,-0.35742 -0.10547,-0.15821 -0.39843,-0.28711 -0.28711,-0.13477 -0.84375,-0.25196 -0.49219,-0.10546 -0.90821,-0.26367 -0.41601,-0.1582 -0.71484,-0.38086 -0.29883,-0.22851 -0.46875,-0.5332 -0.16406,-0.31055 -0.16406,-0.71484 0,-0.39258 0.16992,-0.73829 0.16992,-0.35156 0.49219,-0.61523 0.32226,-0.26953 0.78515,-0.42187 0.46289,-0.15821 1.04297,-0.15821 0.80859,0 1.38867,0.26367 0.58594,0.26368 0.89649,0.72657 0.31054,0.45703 0.31054,1.03125 h -1.54687 q 0,-0.25196 -0.11719,-0.45703 -0.11133,-0.20508 -0.3457,-0.32813 -0.23438,-0.12891 -0.5918,-0.12891 -0.32226,0 -0.54492,0.10547 -0.2168,0.10547 -0.32813,0.27539 -0.11132,0.16993 -0.11132,0.375 0,0.15235 0.0586,0.27539 0.0645,0.11719 0.20508,0.2168 0.14062,0.0996 0.38086,0.18164 0.24609,0.082 0.60351,0.1582 0.70899,0.14063 1.23633,0.375 0.5332,0.22852 0.83203,0.60938 0.29883,0.38086 0.29883,0.97266 0,0.42187 -0.18164,0.77343 -0.18164,0.34571 -0.52734,0.60352 -0.34571,0.25781 -0.82618,0.4043 -0.48046,0.14062 -1.08398,0.14062 -0.87305,0 -1.47656,-0.31055 -0.60352,-0.3164 -0.91407,-0.79687 -0.31054,-0.48633 -0.31054,-1.00781 h 1.48242 q 0.0176,0.36914 0.19922,0.59179 0.18164,0.22266 0.45703,0.32227 0.28125,0.0937 0.5918,0.0937 0.35156,0 0.59179,-0.0937 0.24024,-0.0996 0.36328,-0.26367 0.12305,-0.16992 0.12305,-0.38672 z m 5.93125,1.85156 q -0.7207,0 -1.29492,-0.23437 -0.57422,-0.23438 -0.97852,-0.65039 -0.39843,-0.42188 -0.61523,-0.97852 -0.21094,-0.5625 -0.21094,-1.20703 v -0.23438 q 0,-0.73242 0.21094,-1.33007 0.21094,-0.60352 0.59766,-1.03711 0.38671,-0.4336 0.92578,-0.66797 0.53906,-0.23438 1.18945,-0.23438 0.67383,0 1.18945,0.22852 0.51563,0.22265 0.86133,0.63281 0.3457,0.41016 0.52149,0.98438 0.17578,0.56835 0.17578,1.25976 v 0.65039 h -4.96875 v -1.0664 h 3.44531 v -0.11719 q -0.0117,-0.36914 -0.14063,-0.67383 -0.1289,-0.31055 -0.39843,-0.49219 -0.26953,-0.1875 -0.69727,-0.1875 -0.3457,0 -0.60351,0.15235 -0.25196,0.14648 -0.42188,0.42187 -0.16406,0.26953 -0.24609,0.64453 -0.082,0.375 -0.082,0.83203 v 0.23438 q 0,0.39844 0.10546,0.73828 0.11133,0.33984 0.32227,0.5918 0.2168,0.24609 0.51563,0.38672 0.30468,0.13476 0.6914,0.13476 0.48633,0 0.87891,-0.1875 0.39844,-0.19336 0.6914,-0.56836 l 0.7793,0.8086 q -0.19922,0.29296 -0.53906,0.5625 -0.33399,0.26953 -0.8086,0.43945 -0.4746,0.16406 -1.0957,0.16406 z m 5.65,-9.11719 v 9 h -1.55273 v -9 z m 3.51719,0 v 9 h -1.55273 v -9 z m 4.72422,9.11719 q -0.72071,0 -1.29493,-0.23437 -0.57421,-0.23438 -0.97851,-0.65039 -0.39844,-0.42188 -0.61524,-0.97852 -0.21093,-0.5625 -0.21093,-1.20703 v -0.23438 q 0,-0.73242 0.21093,-1.33007 0.21094,-0.60352 0.59766,-1.03711 0.38672,-0.4336 0.92578,-0.66797 0.53906,-0.23438 1.18946,-0.23438 0.67382,0 1.18945,0.22852 0.51562,0.22265 0.86133,0.63281 0.3457,0.41016 0.52148,0.98438 0.17578,0.56835 0.17578,1.25976 v 0.65039 h -4.96875 v -1.0664 h 3.44531 v -0.11719 q -0.0117,-0.36914 -0.14062,-0.67383 -0.12891,-0.31055 -0.39844,-0.49219 -0.26953,-0.1875 -0.69726,-0.1875 -0.34571,0 -0.60352,0.15235 -0.25195,0.14648 -0.42187,0.42187 -0.16407,0.26953 -0.2461,0.64453 -0.082,0.375 -0.082,0.83203 v 0.23438 q 0,0.39844 0.10547,0.73828 0.11133,0.33984 0.32227,0.5918 0.21679,0.24609 0.51562,0.38672 0.30469,0.13476 0.69141,0.13476 0.48632,0 0.8789,-0.1875 0.39844,-0.19336 0.69141,-0.56836 l 0.7793,0.8086 q -0.19922,0.29296 -0.53907,0.5625 -0.33398,0.26953 -0.80859,0.43945 -0.47461,0.16406 -1.0957,0.16406 z m 5.55625,-5.16211 v 5.04492 h -1.54688 v -6.33984 h 1.46485 z m 1.92773,-1.33594 -0.0234,1.44141 q -0.1289,-0.0234 -0.29296,-0.0352 -0.15821,-0.0117 -0.29883,-0.0117 -0.35742,0 -0.62696,0.0996 -0.26953,0.0937 -0.45117,0.2754 -0.17578,0.18164 -0.26953,0.44531 -0.0937,0.25781 -0.10547,0.58594 l -0.33398,-0.041 q 0,-0.60352 0.12305,-1.11914 0.12304,-0.51563 0.35742,-0.90234 0.23437,-0.38672 0.58593,-0.59766 0.35743,-0.2168 0.82032,-0.2168 0.1289,0 0.27539,0.0234 0.15234,0.0176 0.24023,0.0527 z m 2.88438,0.041 v 6.33984 h -1.55274 v -6.33984 z m -1.65821,-1.6582 q 0,-0.34571 0.23438,-0.57422 0.24023,-0.22852 0.64453,-0.22852 0.4043,0 0.63867,0.22852 0.24023,0.22851 0.24023,0.57422 0,0.33984 -0.24023,0.56836 -0.23437,0.22851 -0.63867,0.22851 -0.4043,0 -0.64453,-0.22851 -0.23438,-0.22852 -0.23438,-0.56836 z m 7.02696,6.65039 v -2.92383 q 0,-0.32227 -0.11133,-0.55664 -0.11133,-0.23438 -0.33985,-0.36328 -0.22851,-0.12891 -0.58007,-0.12891 -0.31055,0 -0.54493,0.10547 -0.22851,0.10547 -0.35156,0.29883 -0.12304,0.1875 -0.12304,0.43359 h -1.55274 q 0,-0.39258 0.1875,-0.74414 0.1875,-0.35742 0.5332,-0.63281 0.35157,-0.28125 0.83789,-0.43945 0.49219,-0.15821 1.10157,-0.15821 0.7207,0 1.2832,0.2461 0.56836,0.24023 0.89063,0.72656 0.32812,0.48633 0.32812,1.22461 v 2.76562 q 0,0.47461 0.0586,0.81446 0.0645,0.33398 0.1875,0.58007 v 0.0996 h -1.57617 q -0.11133,-0.24023 -0.16992,-0.60937 -0.0586,-0.375 -0.0586,-0.73828 z m 0.21679,-2.51367 0.0117,0.91992 h -0.97851 q -0.36328,0 -0.63868,0.0762 -0.27539,0.0703 -0.45117,0.21094 -0.17578,0.13476 -0.26367,0.32812 -0.0879,0.1875 -0.0879,0.42774 0,0.23437 0.10547,0.42187 0.11133,0.1875 0.31641,0.29883 0.21093,0.10547 0.49218,0.10547 0.41016,0 0.71485,-0.16406 0.30468,-0.16993 0.47461,-0.41016 0.16992,-0.24024 0.18164,-0.45703 l 0.44531,0.66797 q -0.082,0.24023 -0.24609,0.50976 -0.16407,0.26953 -0.42188,0.50391 -0.25781,0.23437 -0.62109,0.38672 -0.36328,0.15234 -0.84375,0.15234 -0.61524,0 -1.10157,-0.24609 -0.48632,-0.2461 -0.76757,-0.67383 -0.28125,-0.42774 -0.28125,-0.97266 0,-0.5039 0.1875,-0.89062 0.1875,-0.38672 0.55664,-0.65039 0.36914,-0.26953 0.91406,-0.4043 0.55078,-0.14062 1.25976,-0.14062 z m 10.32149,2.51367 v -7.65235 h 1.55859 v 9 h -1.40625 z m -4.07226,-1.7461 v -0.12304 q 0,-0.72657 0.16406,-1.31836 0.16992,-0.59766 0.49219,-1.02539 0.32226,-0.42774 0.77929,-0.66211 0.46289,-0.23438 1.04883,-0.23438 0.56836,0 0.99023,0.22852 0.42774,0.22851 0.72657,0.65039 0.30468,0.42187 0.48633,1.00195 0.18164,0.57422 0.26367,1.26563 v 0.33398 q -0.082,0.67383 -0.26367,1.23633 -0.18165,0.5625 -0.48633,0.98437 -0.29883,0.41602 -0.72657,0.64454 -0.42773,0.22851 -1.00195,0.22851 -0.58008,0 -1.04297,-0.24023 -0.45703,-0.24024 -0.77929,-0.67383 -0.31641,-0.4336 -0.48633,-1.01953 -0.16406,-0.58594 -0.16406,-1.27735 z m 1.55273,-0.12304 v 0.12304 q 0,0.41016 0.0703,0.76758 0.0703,0.35742 0.22852,0.63281 0.1582,0.26954 0.40429,0.42188 0.25196,0.15234 0.60938,0.15234 0.45703,0 0.75,-0.19922 0.29883,-0.20507 0.46289,-0.55664 0.16406,-0.35742 0.21094,-0.80273 v -0.91992 q -0.0234,-0.35157 -0.12305,-0.65039 -0.0937,-0.29883 -0.26953,-0.51563 -0.16992,-0.2168 -0.42188,-0.33984 -0.25195,-0.12305 -0.59765,-0.12305 -0.35742,0 -0.60938,0.1582 -0.25195,0.15235 -0.41015,0.42774 -0.15821,0.27539 -0.23438,0.63867 -0.0703,0.36328 -0.0703,0.78516 z m 6.75742,-5.78321 v 0.80274 l -0.16407,2.29687 h -0.99023 v -2.20898 -0.89063 z m 7.25547,7.73438 v 1.26562 h -4.53516 v -1.26562 z m -4.04297,-7.26563 v 8.53125 h -1.61133 v -8.53125 z m 3.45117,3.52149 v 1.23633 h -3.94336 v -1.23633 z m 0.57422,-3.52149 v 1.27149 h -4.51758 v -1.27149 z m 5.10508,7.1836 v -7.65235 h 1.55859 v 9 h -1.40625 z m -4.07227,-1.7461 v -0.12304 q 0,-0.72657 0.16406,-1.31836 0.16993,-0.59766 0.49219,-1.02539 0.32227,-0.42774 0.7793,-0.66211 0.46289,-0.23438 1.04883,-0.23438 0.56836,0 0.99023,0.22852 0.42774,0.22851 0.72656,0.65039 0.30469,0.42187 0.48633,1.00195 0.18164,0.57422 0.26367,1.26563 v 0.33398 q -0.082,0.67383 -0.26367,1.23633 -0.18164,0.5625 -0.48633,0.98437 -0.29882,0.41602 -0.72656,0.64454 -0.42773,0.22851 -1.00195,0.22851 -0.58008,0 -1.04297,-0.24023 -0.45703,-0.24024 -0.7793,-0.67383 -0.3164,-0.4336 -0.48633,-1.01953 -0.16406,-0.58594 -0.16406,-1.27735 z m 1.55274,-0.12304 v 0.12304 q 0,0.41016 0.0703,0.76758 0.0703,0.35742 0.22851,0.63281 0.15821,0.26954 0.4043,0.42188 0.25195,0.15234 0.60938,0.15234 0.45703,0 0.75,-0.19922 0.29882,-0.20507 0.46289,-0.55664 0.16406,-0.35742 0.21093,-0.80273 v -0.91992 q -0.0234,-0.35157 -0.12304,-0.65039 -0.0937,-0.29883 -0.26953,-0.51563 -0.16993,-0.2168 -0.42188,-0.33984 -0.25195,-0.12305 -0.59766,-0.12305 -0.35742,0 -0.60937,0.1582 -0.25195,0.15235 -0.41016,0.42774 -0.1582,0.27539 -0.23437,0.63867 -0.0703,0.36328 -0.0703,0.78516 z m 9.64609,1.71093 v -4.83398 h 1.5586 v 6.33984 h -1.46485 z m 0.19922,-1.3125 0.48047,-0.0117 q 0,0.63867 -0.14063,1.17773 -0.14062,0.53906 -0.43945,0.9375 -0.29297,0.39258 -0.74414,0.61523 -0.45117,0.2168 -1.06641,0.2168 -0.46875,0 -0.85546,-0.12891 -0.38672,-0.13476 -0.66797,-0.41601 -0.27539,-0.28711 -0.42774,-0.73242 -0.15234,-0.45117 -0.15234,-1.08399 v -4.0957 h 1.54687 v 4.10742 q 0,0.31641 0.0703,0.52735 0.0762,0.21093 0.20507,0.3457 0.13477,0.1289 0.31055,0.1875 0.18164,0.0527 0.38672,0.0527 0.5625,0 0.88477,-0.22265 0.32812,-0.22852 0.46875,-0.60938 0.14062,-0.38672 0.14062,-0.86719 z m 5.72617,1.7168 q 0.32813,0 0.58594,-0.12891 0.25781,-0.1289 0.41016,-0.36328 0.1582,-0.23437 0.16992,-0.54492 h 1.45898 q -0.0117,0.64453 -0.36328,1.1543 -0.35156,0.50976 -0.9375,0.80859 -0.58008,0.29297 -1.30078,0.29297 -0.73242,0 -1.27734,-0.24609 -0.54492,-0.2461 -0.90821,-0.68555 -0.35742,-0.43945 -0.53906,-1.01953 -0.17578,-0.58008 -0.17578,-1.24219 v -0.1875 q 0,-0.66211 0.17578,-1.24219 0.18164,-0.58007 0.53906,-1.01953 0.36329,-0.43945 0.90821,-0.68554 0.54492,-0.2461 1.27148,-0.2461 0.76758,0 1.34766,0.29883 0.58594,0.29883 0.91406,0.84375 0.33398,0.54492 0.3457,1.2832 h -1.45898 q -0.0117,-0.33984 -0.15234,-0.60937 -0.14063,-0.26953 -0.39844,-0.4336 -0.25781,-0.16406 -0.62696,-0.16406 -0.39257,0 -0.65625,0.16406 -0.25781,0.16407 -0.40429,0.45118 -0.14063,0.28125 -0.19922,0.63281 -0.0527,0.3457 -0.0527,0.72656 v 0.1875 q 0,0.38672 0.0527,0.73828 0.0586,0.35157 0.19922,0.63282 0.14648,0.27539 0.40429,0.43945 0.26368,0.16406 0.66797,0.16406 z m 7.54843,-0.24609 v -2.92383 q 0,-0.32227 -0.11132,-0.55664 -0.11133,-0.23438 -0.33985,-0.36328 -0.22851,-0.12891 -0.58008,-0.12891 -0.31054,0 -0.54492,0.10547 -0.22851,0.10547 -0.35156,0.29883 -0.12305,0.1875 -0.12305,0.43359 h -1.55273 q 0,-0.39258 0.1875,-0.74414 0.1875,-0.35742 0.5332,-0.63281 0.35156,-0.28125 0.83789,-0.43945 0.49219,-0.15821 1.10157,-0.15821 0.7207,0 1.2832,0.2461 0.56836,0.24023 0.89062,0.72656 0.32813,0.48633 0.32813,1.22461 v 2.76562 q 0,0.47461 0.0586,0.81446 0.0645,0.33398 0.1875,0.58007 v 0.0996 h -1.57617 q -0.11133,-0.24023 -0.16992,-0.60937 -0.0586,-0.375 -0.0586,-0.73828 z m 0.2168,-2.51367 0.0117,0.91992 h -0.97852 q -0.36328,0 -0.63867,0.0762 -0.27539,0.0703 -0.45117,0.21094 -0.17578,0.13476 -0.26367,0.32812 -0.0879,0.1875 -0.0879,0.42774 0,0.23437 0.10547,0.42187 0.11133,0.1875 0.3164,0.29883 0.21094,0.10547 0.49219,0.10547 0.41016,0 0.71484,-0.16406 0.30469,-0.16993 0.47461,-0.41016 0.16993,-0.24024 0.18164,-0.45703 l 0.44532,0.66797 q -0.082,0.24023 -0.2461,0.50976 -0.16406,0.26953 -0.42187,0.50391 -0.25781,0.23437 -0.6211,0.38672 -0.36328,0.15234 -0.84375,0.15234 -0.61523,0 -1.10156,-0.24609 -0.48633,-0.2461 -0.76758,-0.67383 -0.28125,-0.42774 -0.28125,-0.97266 0,-0.5039 0.1875,-0.89062 0.1875,-0.38672 0.55664,-0.65039 0.36915,-0.26953 0.91407,-0.4043 0.55078,-0.14062 1.25976,-0.14062 z m 5.73789,2.75976 q 0.32813,0 0.58594,-0.12891 0.25781,-0.1289 0.41016,-0.36328 0.1582,-0.23437 0.16992,-0.54492 h 1.45898 q -0.0117,0.64453 -0.36328,1.1543 -0.35156,0.50976 -0.9375,0.80859 -0.58008,0.29297 -1.30078,0.29297 -0.73242,0 -1.27734,-0.24609 -0.54492,-0.2461 -0.90821,-0.68555 -0.35742,-0.43945 -0.53906,-1.01953 -0.17578,-0.58008 -0.17578,-1.24219 v -0.1875 q 0,-0.66211 0.17578,-1.24219 0.18164,-0.58007 0.53906,-1.01953 0.36329,-0.43945 0.90821,-0.68554 0.54492,-0.2461 1.27148,-0.2461 0.76758,0 1.34766,0.29883 0.58594,0.29883 0.91406,0.84375 0.33399,0.54492 0.3457,1.2832 h -1.45898 q -0.0117,-0.33984 -0.15234,-0.60937 -0.14063,-0.26953 -0.39844,-0.4336 -0.25781,-0.16406 -0.62695,-0.16406 -0.39258,0 -0.65625,0.16406 -0.25782,0.16407 -0.4043,0.45118 -0.14063,0.28125 -0.19922,0.63281 -0.0527,0.3457 -0.0527,0.72656 v 0.1875 q 0,0.38672 0.0527,0.73828 0.0586,0.35157 0.19922,0.63282 0.14648,0.27539 0.4043,0.43945 0.26367,0.16406 0.66796,0.16406 z m 5.69688,-5.23828 v 6.33984 h -1.55273 v -6.33984 z m -1.6582,-1.6582 q 0,-0.34571 0.23437,-0.57422 0.24024,-0.22852 0.64453,-0.22852 0.4043,0 0.63868,0.22852 0.24023,0.22851 0.24023,0.57422 0,0.33984 -0.24023,0.56836 -0.23438,0.22851 -0.63868,0.22851 -0.40429,0 -0.64453,-0.22851 -0.23437,-0.22852 -0.23437,-0.56836 z m 3.25937,4.89257 v -0.12304 q 0,-0.69727 0.19922,-1.28321 0.19922,-0.59179 0.58008,-1.02539 0.38086,-0.43359 0.93164,-0.67382 0.55078,-0.2461 1.25391,-0.2461 0.71484,0 1.26562,0.2461 0.55664,0.24023 0.9375,0.67382 0.38086,0.4336 0.58008,1.02539 0.19922,0.58594 0.19922,1.28321 v 0.12304 q 0,0.69141 -0.19922,1.28321 -0.19922,0.58594 -0.58008,1.02539 -0.38086,0.43359 -0.93164,0.67383 -0.55078,0.24023 -1.25976,0.24023 -0.70313,0 -1.25977,-0.24023 -0.55664,-0.24024 -0.9375,-0.67383 -0.38086,-0.43945 -0.58008,-1.02539 -0.19922,-0.5918 -0.19922,-1.28321 z m 1.54688,-0.12304 v 0.12304 q 0,0.41602 0.082,0.7793 0.082,0.36328 0.25195,0.63867 0.16993,0.27539 0.43946,0.4336 0.27539,0.15234 0.65625,0.15234 0.375,0 0.64453,-0.15234 0.26953,-0.15821 0.43945,-0.4336 0.17578,-0.27539 0.25781,-0.63867 0.082,-0.36328 0.082,-0.7793 v -0.12304 q 0,-0.41016 -0.082,-0.76758 -0.082,-0.36328 -0.25781,-0.63867 -0.16992,-0.28125 -0.44531,-0.43946 -0.26953,-0.16406 -0.65039,-0.16406 -0.375,0 -0.64453,0.16406 -0.26953,0.15821 -0.43946,0.43946 -0.16992,0.27539 -0.25195,0.63867 -0.082,0.35742 -0.082,0.76758 z m 0.65039,-3.99024 1.14844,-1.78125 h 1.71093 l -1.5996,1.78125 z m 6.72813,5.82422 -0.0117,1.07227 q 0,0.62695 -0.31055,1.27148 -0.31055,0.64453 -0.80273,1.06641 l -0.82032,-0.45117 q 0.15821,-0.26368 0.29297,-0.53321 0.14063,-0.26953 0.22266,-0.58593 0.0879,-0.31055 0.0879,-0.69727 v -1.14258 z m 10.25117,-1.41211 h 1.61133 q -0.0644,0.85547 -0.47461,1.51758 -0.41016,0.65625 -1.14258,1.03125 -0.73242,0.375 -1.77539,0.375 -0.80273,0 -1.44726,-0.28125 -0.63868,-0.28711 -1.09571,-0.81445 -0.45117,-0.53321 -0.6914,-1.27735 -0.24024,-0.75 -0.24024,-1.68164 v -0.65039 q 0,-0.93164 0.2461,-1.68164 0.24609,-0.75 0.70312,-1.27734 0.46289,-0.5332 1.10742,-0.82031 0.65039,-0.28711 1.45313,-0.28711 1.04297,0 1.76367,0.38672 0.7207,0.38085 1.11914,1.04882 0.39844,0.66797 0.48047,1.53516 h -1.61133 q -0.0469,-0.53906 -0.23437,-0.91406 -0.18165,-0.375 -0.55079,-0.56836 -0.36328,-0.19922 -0.96679,-0.19922 -0.46875,0 -0.82617,0.17578 -0.35157,0.17578 -0.58594,0.52734 -0.23438,0.34571 -0.35156,0.86719 -0.11719,0.51563 -0.11719,1.19531 v 0.66211 q 0,0.65039 0.10547,1.16602 0.10547,0.51562 0.32812,0.87305 0.22266,0.35742 0.57422,0.54492 0.35156,0.1875 0.83789,0.1875 0.5918,0 0.96094,-0.1875 0.375,-0.1875 0.56836,-0.55078 0.19922,-0.36328 0.25195,-0.90235 z m 6.90976,1.30078 v -4.83398 h 1.55859 v 6.33984 h -1.46484 z m 0.19922,-1.3125 0.48047,-0.0117 q 0,0.63867 -0.14063,1.17773 -0.14062,0.53906 -0.43945,0.9375 -0.29297,0.39258 -0.74414,0.61523 -0.45117,0.2168 -1.06641,0.2168 -0.46875,0 -0.85547,-0.12891 -0.38671,-0.13476 -0.66796,-0.41601 -0.2754,-0.28711 -0.42774,-0.73242 -0.15234,-0.45117 -0.15234,-1.08399 v -4.0957 h 1.54687 v 4.10742 q 0,0.31641 0.0703,0.52735 0.0762,0.21093 0.20508,0.3457 0.13477,0.1289 0.31055,0.1875 0.18164,0.0527 0.38672,0.0527 0.5625,0 0.88476,-0.22265 0.32813,-0.22852 0.46875,-0.60938 0.14063,-0.38672 0.14063,-0.86719 z m 4.76523,-6.18164 v 9 h -1.55274 v -9 z m 4.87657,2.66016 v 1.11328 h -3.63281 v -1.11328 z m -2.66016,-1.55859 h 1.55274 v 6.07031 q 0,0.28125 0.0762,0.43359 0.0762,0.15235 0.22851,0.20508 0.15235,0.0527 0.36329,0.0527 0.15234,0 0.28125,-0.0176 0.1289,-0.0176 0.21679,-0.0352 l 0.006,1.16016 q -0.19336,0.0644 -0.43945,0.10547 -0.24024,0.041 -0.54492,0.041 -0.52149,0 -0.91407,-0.17578 -0.39257,-0.18164 -0.60937,-0.58008 -0.2168,-0.4043 -0.2168,-1.0664 z m 7.86484,6.39257 v -4.83398 h 1.55859 v 6.33984 h -1.46484 z m 0.19922,-1.3125 0.48047,-0.0117 q 0,0.63867 -0.14063,1.17773 -0.14062,0.53906 -0.43945,0.9375 -0.29297,0.39258 -0.74414,0.61523 -0.45117,0.2168 -1.06641,0.2168 -0.46875,0 -0.85547,-0.12891 -0.38671,-0.13476 -0.66796,-0.41601 -0.2754,-0.28711 -0.42774,-0.73242 -0.15234,-0.45117 -0.15234,-1.08399 v -4.0957 h 1.54687 v 4.10742 q 0,0.31641 0.0703,0.52735 0.0762,0.21093 0.20508,0.3457 0.13477,0.1289 0.31055,0.1875 0.18164,0.0527 0.38672,0.0527 0.5625,0 0.88476,-0.22265 0.32813,-0.22852 0.46875,-0.60938 0.14063,-0.38672 0.14063,-0.86719 z m 4.67149,-2.22656 v 5.04492 h -1.54687 v -6.33984 h 1.46484 z m 1.92774,-1.33594 -0.0234,1.44141 q -0.12891,-0.0234 -0.29297,-0.0352 -0.1582,-0.0117 -0.29883,-0.0117 -0.35742,0 -0.62695,0.0996 -0.26953,0.0937 -0.45117,0.2754 -0.17578,0.18164 -0.26953,0.44531 -0.0937,0.25781 -0.10547,0.58594 l -0.33399,-0.041 q 0,-0.60352 0.12305,-1.11914 0.12305,-0.51563 0.35742,-0.90234 0.23438,-0.38672 0.58594,-0.59766 0.35742,-0.2168 0.82031,-0.2168 0.12891,0 0.27539,0.0234 0.15235,0.0176 0.24024,0.0527 z m 4.53218,5.03321 v -2.92383 q 0,-0.32227 -0.11133,-0.55664 -0.11133,-0.23438 -0.33984,-0.36328 -0.22852,-0.12891 -0.58008,-0.12891 -0.31055,0 -0.54492,0.10547 -0.22852,0.10547 -0.35157,0.29883 -0.12304,0.1875 -0.12304,0.43359 h -1.55274 q 0,-0.39258 0.1875,-0.74414 0.1875,-0.35742 0.53321,-0.63281 0.35156,-0.28125 0.83789,-0.43945 0.49218,-0.15821 1.10156,-0.15821 0.7207,0 1.2832,0.2461 0.56836,0.24023 0.89063,0.72656 0.32812,0.48633 0.32812,1.22461 v 2.76562 q 0,0.47461 0.0586,0.81446 0.0644,0.33398 0.1875,0.58007 v 0.0996 h -1.57618 q -0.11132,-0.24023 -0.16992,-0.60937 -0.0586,-0.375 -0.0586,-0.73828 z m 0.21679,-2.51367 0.0117,0.91992 h -0.97851 q -0.36328,0 -0.63867,0.0762 -0.27539,0.0703 -0.45118,0.21094 -0.17578,0.13476 -0.26367,0.32812 -0.0879,0.1875 -0.0879,0.42774 0,0.23437 0.10547,0.42187 0.11133,0.1875 0.31641,0.29883 0.21093,0.10547 0.49218,0.10547 0.41016,0 0.71485,-0.16406 0.30469,-0.16993 0.47461,-0.41016 0.16992,-0.24024 0.18164,-0.45703 l 0.44531,0.66797 q -0.082,0.24023 -0.24609,0.50976 -0.16407,0.26953 -0.42188,0.50391 -0.25781,0.23437 -0.62109,0.38672 -0.36328,0.15234 -0.84375,0.15234 -0.61524,0 -1.10156,-0.24609 -0.48633,-0.2461 -0.76758,-0.67383 -0.28125,-0.42774 -0.28125,-0.97266 0,-0.5039 0.1875,-0.89062 0.1875,-0.38672 0.55664,-0.65039 0.36914,-0.26953 0.91406,-0.4043 0.55078,-0.14062 1.25977,-0.14062 z m 4.59531,2.46679 -0.0117,1.07227 q 0,0.62695 -0.31054,1.27148 -0.31055,0.64453 -0.80274,1.06641 l -0.82031,-0.45117 q 0.1582,-0.26368 0.29297,-0.53321 0.14062,-0.26953 0.22265,-0.58593 0.0879,-0.31055 0.0879,-0.69727 v -1.14258 z"
       id="path3" />
    <path
       style="font-weight:600;line-height:1.3;font-family:Roboto;-inkscape-font-specification:'Roboto Semi-Bold';letter-spacing:0.4px;display:inline;fill:#c8102e"
       d="m 250.54837,611.37203 h 1.61133 v 5.66602 q 0,0.97851 -0.42188,1.64648 -0.42187,0.66211 -1.14843,1.00196 -0.72657,0.33398 -1.65235,0.33398 -0.9375,0 -1.66992,-0.33398 -0.73242,-0.33985 -1.14844,-1.00196 -0.41601,-0.66797 -0.41601,-1.64648 v -5.66602 h 1.61133 v 5.66602 q 0,0.59765 0.19921,0.97851 0.19922,0.375 0.5625,0.55664 0.36329,0.18165 0.86133,0.18165 0.50391,0 0.86133,-0.18165 0.36328,-0.18164 0.55664,-0.55664 0.19336,-0.38086 0.19336,-0.97851 z m 4.93516,3.54492 v 4.98633 h -1.54688 v -6.33984 h 1.45313 z m -0.2461,1.5879 h -0.45703 q 0.006,-0.69141 0.1875,-1.25391 0.18164,-0.5625 0.50977,-0.9668 0.33398,-0.40429 0.79101,-0.62109 0.45703,-0.2168 1.01953,-0.2168 0.45703,0 0.82618,0.12891 0.36914,0.1289 0.63281,0.41015 0.26953,0.28125 0.41015,0.73829 0.14649,0.45117 0.14649,1.11328 v 4.0664 h -1.5586 v -4.07812 q 0,-0.4336 -0.1289,-0.68555 -0.12305,-0.25195 -0.36328,-0.35742 -0.23438,-0.10547 -0.58008,-0.10547 -0.35742,0 -0.62695,0.14648 -0.26368,0.14063 -0.44532,0.39258 -0.17578,0.25196 -0.26953,0.58008 -0.0937,0.32813 -0.0937,0.70899 z m 7.47227,-2.94141 v 6.33984 h -1.55274 v -6.33984 z m -1.6582,-1.6582 q 0,-0.34571 0.23437,-0.57422 0.24023,-0.22852 0.64453,-0.22852 0.4043,0 0.63867,0.22852 0.24024,0.22851 0.24024,0.57422 0,0.33984 -0.24024,0.56836 -0.23437,0.22851 -0.63867,0.22851 -0.4043,0 -0.64453,-0.22851 -0.23437,-0.22852 -0.23437,-0.56836 z m 5.63828,6.82617 1.47656,-5.16797 h 1.61719 l -2.17383,6.33984 h -0.98438 z m -1.07813,-5.16797 1.49414,5.17969 0.0527,1.16015 h -0.99024 l -2.17968,-6.33984 z m 8.15781,6.45703 q -0.7207,0 -1.29492,-0.23437 -0.57422,-0.23438 -0.97851,-0.6504 -0.39844,-0.42187 -0.61524,-0.97851 -0.21093,-0.5625 -0.21093,-1.20703 v -0.23438 q 0,-0.73242 0.21093,-1.33008 0.21094,-0.60351 0.59766,-1.0371 0.38672,-0.4336 0.92578,-0.66797 0.53906,-0.23438 1.18945,-0.23438 0.67383,0 1.18946,0.22852 0.51562,0.22265 0.86132,0.63281 0.34571,0.41016 0.52149,0.98437 0.17578,0.56836 0.17578,1.25977 v 0.65039 h -4.96875 v -1.06641 h 3.44531 v -0.11718 q -0.0117,-0.36914 -0.14062,-0.67383 -0.12891,-0.31055 -0.39844,-0.49219 -0.26953,-0.1875 -0.69727,-0.1875 -0.3457,0 -0.60351,0.15235 -0.25195,0.14648 -0.42188,0.42187 -0.16406,0.26953 -0.24609,0.64453 -0.082,0.375 -0.082,0.83203 v 0.23438 q 0,0.39844 0.10547,0.73828 0.11133,0.33984 0.32226,0.5918 0.2168,0.24609 0.51563,0.38671 0.30469,0.13477 0.6914,0.13477 0.48633,0 0.87891,-0.1875 0.39844,-0.19336 0.69141,-0.56836 l 0.77929,0.80859 q -0.19921,0.29297 -0.53906,0.5625 -0.33398,0.26954 -0.80859,0.43946 -0.47461,0.16406 -1.09571,0.16406 z m 5.55625,-5.16211 v 5.04492 h -1.54687 v -6.33984 h 1.46484 z m 1.92774,-1.33594 -0.0234,1.44141 q -0.12891,-0.0234 -0.29297,-0.0352 -0.1582,-0.0117 -0.29883,-0.0117 -0.35742,0 -0.62695,0.0996 -0.26953,0.0937 -0.45117,0.27539 -0.17578,0.18165 -0.26953,0.44532 -0.0937,0.25781 -0.10547,0.58593 l -0.33399,-0.041 q 0,-0.60352 0.12305,-1.11914 0.12305,-0.51563 0.35742,-0.90235 0.23438,-0.38671 0.58594,-0.59765 0.35742,-0.2168 0.82031,-0.2168 0.12891,0 0.27539,0.0234 0.15235,0.0176 0.24024,0.0527 z m 4.73008,4.64649 q 0,-0.19922 -0.10547,-0.35742 -0.10547,-0.15821 -0.39844,-0.28711 -0.28711,-0.13477 -0.84375,-0.25196 -0.49219,-0.10547 -0.9082,-0.26367 -0.41602,-0.1582 -0.71484,-0.38086 -0.29883,-0.22851 -0.46875,-0.5332 -0.16407,-0.31055 -0.16407,-0.71484 0,-0.39258 0.16992,-0.73829 0.16993,-0.35156 0.49219,-0.61523 0.32227,-0.26953 0.78516,-0.42188 0.46289,-0.1582 1.04297,-0.1582 0.80859,0 1.38867,0.26367 0.58594,0.26368 0.89648,0.72657 0.31055,0.45703 0.31055,1.03125 h -1.54687 q 0,-0.25196 -0.11719,-0.45704 -0.11133,-0.20507 -0.34571,-0.32812 -0.23437,-0.12891 -0.59179,-0.12891 -0.32227,0 -0.54492,0.10547 -0.2168,0.10547 -0.32813,0.27539 -0.11133,0.16992 -0.11133,0.375 0,0.15235 0.0586,0.27539 0.0645,0.11719 0.20507,0.2168 0.14063,0.0996 0.38086,0.18164 0.2461,0.082 0.60352,0.1582 0.70898,0.14063 1.23633,0.375 0.5332,0.22852 0.83203,0.60938 0.29883,0.38086 0.29883,0.97266 0,0.42187 -0.18164,0.77343 -0.18164,0.34571 -0.52735,0.60352 -0.3457,0.25781 -0.82617,0.4043 -0.48047,0.14062 -1.08398,0.14062 -0.87305,0 -1.47657,-0.31055 -0.60351,-0.3164 -0.91406,-0.79687 -0.31055,-0.48633 -0.31055,-1.00781 h 1.48243 q 0.0176,0.36914 0.19922,0.59179 0.18164,0.22266 0.45703,0.32227 0.28125,0.0937 0.59179,0.0937 0.35157,0 0.5918,-0.0937 0.24023,-0.0996 0.36328,-0.26367 0.12305,-0.16993 0.12305,-0.38672 z m 4.72421,-4.60547 v 6.33984 h -1.55273 v -6.33984 z m -1.6582,-1.6582 q 0,-0.34571 0.23438,-0.57422 0.24023,-0.22852 0.64453,-0.22852 0.40429,0 0.63867,0.22852 0.24023,0.22851 0.24023,0.57422 0,0.33984 -0.24023,0.56836 -0.23438,0.22851 -0.63867,0.22851 -0.4043,0 -0.64453,-0.22851 -0.23438,-0.22852 -0.23438,-0.56836 z m 6.53477,1.6582 v 1.11328 h -3.63281 v -1.11328 z m -2.66016,-1.55859 h 1.55274 v 6.07031 q 0,0.28125 0.0762,0.43359 0.0762,0.15235 0.22851,0.20508 0.15235,0.0527 0.36329,0.0527 0.15234,0 0.28125,-0.0176 0.1289,-0.0176 0.21679,-0.0352 l 0.006,1.16016 q -0.19336,0.0644 -0.43945,0.10546 -0.24024,0.041 -0.54492,0.041 -0.52149,0 -0.91407,-0.17578 -0.39257,-0.18164 -0.60937,-0.58008 -0.2168,-0.4043 -0.2168,-1.06641 z m 7.58359,6.55078 v -2.92383 q 0,-0.32227 -0.11132,-0.55664 -0.11133,-0.23438 -0.33985,-0.36328 -0.22851,-0.12891 -0.58008,-0.12891 -0.31054,0 -0.54492,0.10547 -0.22851,0.10547 -0.35156,0.29883 -0.12305,0.1875 -0.12305,0.43359 h -1.55273 q 0,-0.39258 0.1875,-0.74414 0.1875,-0.35742 0.5332,-0.63281 0.35156,-0.28125 0.83789,-0.43946 0.49219,-0.1582 1.10156,-0.1582 0.72071,0 1.28321,0.2461 0.56836,0.24023 0.89062,0.72656 0.32813,0.48633 0.32813,1.22461 v 2.76562 q 0,0.47461 0.0586,0.81446 0.0645,0.33398 0.1875,0.58007 v 0.0996 h -1.57617 q -0.11133,-0.24023 -0.16992,-0.60937 -0.0586,-0.375 -0.0586,-0.73828 z m 0.2168,-2.51368 0.0117,0.91993 h -0.97852 q -0.36328,0 -0.63867,0.0762 -0.27539,0.0703 -0.45117,0.21094 -0.17578,0.13476 -0.26367,0.32812 -0.0879,0.1875 -0.0879,0.42774 0,0.23437 0.10547,0.42187 0.11132,0.1875 0.3164,0.29883 0.21094,0.10547 0.49219,0.10547 0.41016,0 0.71484,-0.16407 0.30469,-0.16992 0.47461,-0.41015 0.16993,-0.24024 0.18164,-0.45703 l 0.44532,0.66797 q -0.082,0.24023 -0.2461,0.50976 -0.16406,0.26953 -0.42187,0.50391 -0.25781,0.23437 -0.6211,0.38672 -0.36328,0.15234 -0.84375,0.15234 -0.61523,0 -1.10156,-0.24609 -0.48633,-0.2461 -0.76758,-0.67383 -0.28125,-0.42774 -0.28125,-0.97266 0,-0.5039 0.1875,-0.89062 0.1875,-0.38672 0.55664,-0.65039 0.36914,-0.26953 0.91407,-0.4043 0.55078,-0.14063 1.25976,-0.14063 z m 6.13633,-2.47851 v 1.11328 h -3.63281 v -1.11328 z m -2.66016,-1.55859 h 1.55274 v 6.07031 q 0,0.28125 0.0762,0.43359 0.0762,0.15235 0.22852,0.20508 0.15234,0.0527 0.36328,0.0527 0.15234,0 0.28125,-0.0176 0.1289,-0.0176 0.21679,-0.0352 l 0.006,1.16016 q -0.19336,0.0644 -0.43945,0.10546 -0.24023,0.041 -0.54492,0.041 -0.52149,0 -0.91406,-0.17578 -0.39258,-0.18164 -0.60938,-0.58008 -0.2168,-0.4043 -0.2168,-1.06641 z m 7.57774,6.16406 q 0,-0.19922 -0.10547,-0.35742 -0.10547,-0.15821 -0.39844,-0.28711 -0.28711,-0.13477 -0.84375,-0.25196 -0.49218,-0.10547 -0.9082,-0.26367 -0.41601,-0.1582 -0.71484,-0.38086 -0.29883,-0.22851 -0.46875,-0.5332 -0.16407,-0.31055 -0.16407,-0.71484 0,-0.39258 0.16993,-0.73829 0.16992,-0.35156 0.49218,-0.61523 0.32227,-0.26953 0.78516,-0.42188 0.46289,-0.1582 1.04297,-0.1582 0.80859,0 1.38867,0.26367 0.58594,0.26368 0.89649,0.72657 0.31054,0.45703 0.31054,1.03125 H 311.714 q 0,-0.25196 -0.11719,-0.45704 -0.11133,-0.20507 -0.3457,-0.32812 -0.23438,-0.12891 -0.5918,-0.12891 -0.32227,0 -0.54492,0.10547 -0.2168,0.10547 -0.32813,0.27539 -0.11133,0.16992 -0.11133,0.375 0,0.15235 0.0586,0.27539 0.0645,0.11719 0.20508,0.2168 0.14062,0.0996 0.38086,0.18164 0.24609,0.082 0.60351,0.1582 0.70899,0.14063 1.23633,0.375 0.5332,0.22852 0.83203,0.60938 0.29883,0.38086 0.29883,0.97266 0,0.42187 -0.18164,0.77343 -0.18164,0.34571 -0.52735,0.60352 -0.3457,0.25781 -0.82617,0.4043 -0.48047,0.14062 -1.08398,0.14062 -0.87305,0 -1.47656,-0.31055 -0.60352,-0.3164 -0.91407,-0.79687 -0.31054,-0.48633 -0.31054,-1.00781 h 1.48242 q 0.0176,0.36914 0.19922,0.59179 0.18164,0.22266 0.45703,0.32227 0.28125,0.0937 0.5918,0.0937 0.35156,0 0.59179,-0.0937 0.24024,-0.0996 0.36328,-0.26367 0.12305,-0.16993 0.12305,-0.38672 z m 8.10664,-4.60547 v 6.33984 h -1.55274 v -6.33984 z m -1.65821,-1.6582 q 0,-0.34571 0.23438,-0.57422 0.24023,-0.22852 0.64453,-0.22852 0.4043,0 0.63867,0.22852 0.24024,0.22851 0.24024,0.57422 0,0.33984 -0.24024,0.56836 -0.23437,0.22851 -0.63867,0.22851 -0.4043,0 -0.64453,-0.22851 -0.23438,-0.22852 -0.23438,-0.56836 z m 13.94258,3.51562 v 0.43945 q 0,0.9668 -0.25781,1.74024 -0.25781,0.76758 -0.73242,1.30664 -0.47461,0.53906 -1.13086,0.82617 -0.65625,0.28711 -1.45898,0.28711 -0.79102,0 -1.45313,-0.28711 -0.65625,-0.28711 -1.13672,-0.82617 -0.48047,-0.53906 -0.74414,-1.30664 -0.26367,-0.77344 -0.26367,-1.74024 v -0.43945 q 0,-0.97266 0.26367,-1.74023 0.26367,-0.76758 0.73828,-1.30664 0.47461,-0.54493 1.13086,-0.83204 0.66211,-0.2871 1.45313,-0.2871 0.80273,0 1.45898,0.2871 0.65625,0.28711 1.13086,0.83204 0.48047,0.53906 0.73828,1.30664 0.26367,0.76757 0.26367,1.74023 z m -1.6289,0.43945 v -0.45117 q 0,-0.69726 -0.12891,-1.22461 -0.1289,-0.5332 -0.38086,-0.89648 -0.25195,-0.36328 -0.62109,-0.54492 -0.36914,-0.1875 -0.83203,-0.1875 -0.46875,0 -0.83203,0.1875 -0.35743,0.18164 -0.60938,0.54492 -0.25195,0.36328 -0.38672,0.89648 -0.1289,0.52735 -0.1289,1.22461 v 0.45117 q 0,0.69141 0.1289,1.22461 0.13477,0.53321 0.38672,0.90235 0.25781,0.36328 0.62109,0.55078 0.36329,0.1875 0.83204,0.1875 0.46875,0 0.83203,-0.1875 0.36328,-0.1875 0.60937,-0.55078 0.25196,-0.36914 0.38086,-0.90235 0.12891,-0.5332 0.12891,-1.22461 z m 5.87852,2.94141 q 0.32812,0 0.58593,-0.12891 0.25782,-0.1289 0.41016,-0.36328 0.1582,-0.23437 0.16992,-0.54492 h 1.45899 q -0.0117,0.64453 -0.36329,1.1543 -0.35156,0.50976 -0.9375,0.80859 -0.58007,0.29297 -1.30078,0.29297 -0.73242,0 -1.27734,-0.24609 -0.54492,-0.2461 -0.9082,-0.68555 -0.35743,-0.43945 -0.53907,-1.01953 -0.17578,-0.58008 -0.17578,-1.24219 v -0.1875 q 0,-0.66211 0.17578,-1.24219 0.18164,-0.58007 0.53907,-1.01953 0.36328,-0.43945 0.9082,-0.68554 0.54492,-0.2461 1.27148,-0.2461 0.76758,0 1.34766,0.29883 0.58594,0.29883 0.91406,0.84375 0.33399,0.54492 0.34571,1.2832 h -1.45899 q -0.0117,-0.33984 -0.15234,-0.60937 -0.14063,-0.26953 -0.39844,-0.4336 -0.25781,-0.16406 -0.62695,-0.16406 -0.39258,0 -0.65625,0.16406 -0.25782,0.16407 -0.4043,0.45118 -0.14063,0.28125 -0.19922,0.63281 -0.0527,0.3457 -0.0527,0.72656 v 0.1875 q 0,0.38672 0.0527,0.73828 0.0586,0.35156 0.19922,0.63281 0.14648,0.2754 0.4043,0.43946 0.26367,0.16406 0.66797,0.16406 z m 7.82968,-0.4043 v -4.83398 h 1.5586 v 6.33984 h -1.46485 z m 0.19922,-1.3125 0.48047,-0.0117 q 0,0.63868 -0.14062,1.17774 -0.14063,0.53906 -0.43946,0.9375 -0.29297,0.39258 -0.74414,0.61523 -0.45117,0.2168 -1.0664,0.2168 -0.46875,0 -0.85547,-0.12891 -0.38672,-0.13476 -0.66797,-0.41601 -0.27539,-0.28711 -0.42774,-0.73242 -0.15234,-0.45118 -0.15234,-1.08399 v -4.0957 h 1.54688 v 4.10742 q 0,0.31641 0.0703,0.52734 0.0762,0.21094 0.20508,0.34571 0.13476,0.1289 0.31054,0.1875 0.18164,0.0527 0.38672,0.0527 0.5625,0 0.88477,-0.22265 0.32812,-0.22852 0.46875,-0.60938 0.14062,-0.38672 0.14062,-0.86719 z m 4.67148,-2.30273 v 7.55859 h -1.55273 v -8.77734 h 1.43554 z m 4.07227,1.88672 v 0.12304 q 0,0.69141 -0.16407,1.28321 -0.1582,0.58594 -0.46875,1.02539 -0.31054,0.43359 -0.77343,0.67969 -0.45703,0.24023 -1.05469,0.24023 -0.58594,0 -1.01953,-0.22266 -0.4336,-0.22851 -0.73242,-0.64453 -0.29883,-0.41601 -0.48047,-0.96679 -0.17578,-0.55664 -0.26367,-1.21289 v -0.39258 q 0.0879,-0.69727 0.26367,-1.26563 0.18164,-0.57422 0.48047,-0.99023 0.29882,-0.42188 0.72656,-0.65039 0.43359,-0.22852 1.01367,-0.22852 0.60352,0 1.06055,0.22852 0.46289,0.22851 0.77929,0.65625 0.31641,0.42773 0.47461,1.01953 0.15821,0.5918 0.15821,1.31836 z m -1.55274,0.12304 v -0.12304 q 0,-0.42188 -0.0762,-0.7793 -0.0762,-0.36328 -0.23437,-0.63281 -0.15821,-0.27539 -0.41016,-0.42774 -0.25195,-0.15234 -0.60938,-0.15234 -0.35742,0 -0.61523,0.11719 -0.25781,0.11719 -0.42188,0.33398 -0.16406,0.2168 -0.25781,0.51563 -0.0879,0.29297 -0.11719,0.65039 v 0.97265 q 0.0527,0.4336 0.20508,0.7793 0.15235,0.3457 0.44532,0.55078 0.29882,0.20508 0.77343,0.20508 0.35742,0 0.60938,-0.1582 0.25195,-0.15821 0.41015,-0.4336 0.15821,-0.28125 0.22852,-0.64453 0.0703,-0.36328 0.0703,-0.77344 z m 6.57579,1.76368 v -2.92383 q 0,-0.32227 -0.11133,-0.55664 -0.11133,-0.23438 -0.33985,-0.36328 -0.22851,-0.12891 -0.58007,-0.12891 -0.31055,0 -0.54493,0.10547 -0.22851,0.10547 -0.35156,0.29883 -0.12305,0.1875 -0.12305,0.43359 h -1.55273 q 0,-0.39258 0.1875,-0.74414 0.1875,-0.35742 0.5332,-0.63281 0.35157,-0.28125 0.83789,-0.43946 0.49219,-0.1582 1.10157,-0.1582 0.7207,0 1.2832,0.2461 0.56836,0.24023 0.89062,0.72656 0.32813,0.48633 0.32813,1.22461 v 2.76562 q 0,0.47461 0.0586,0.81446 0.0645,0.33398 0.1875,0.58007 v 0.0996 h -1.57617 q -0.11133,-0.24023 -0.16992,-0.60937 -0.0586,-0.375 -0.0586,-0.73828 z m 0.21679,-2.51368 0.0117,0.91993 h -0.97851 q -0.36329,0 -0.63868,0.0762 -0.27539,0.0703 -0.45117,0.21094 -0.17578,0.13476 -0.26367,0.32812 -0.0879,0.1875 -0.0879,0.42774 0,0.23437 0.10547,0.42187 0.11133,0.1875 0.3164,0.29883 0.21094,0.10547 0.49219,0.10547 0.41016,0 0.71485,-0.16407 0.30468,-0.16992 0.4746,-0.41015 0.16993,-0.24024 0.18165,-0.45703 l 0.44531,0.66797 q -0.082,0.24023 -0.2461,0.50976 -0.16406,0.26953 -0.42187,0.50391 -0.25781,0.23437 -0.62109,0.38672 -0.36329,0.15234 -0.84375,0.15234 -0.61524,0 -1.10157,-0.24609 -0.48633,-0.2461 -0.76758,-0.67383 -0.28125,-0.42774 -0.28125,-0.97266 0,-0.5039 0.1875,-0.89062 0.1875,-0.38672 0.55665,-0.65039 0.36914,-0.26953 0.91406,-0.4043 0.55078,-0.14063 1.25976,-0.14063 z m 5.73789,2.75977 q 0.32813,0 0.58594,-0.12891 0.25781,-0.1289 0.41016,-0.36328 0.1582,-0.23437 0.16992,-0.54492 h 1.45898 q -0.0117,0.64453 -0.36328,1.1543 -0.35156,0.50976 -0.9375,0.80859 -0.58008,0.29297 -1.30078,0.29297 -0.73242,0 -1.27734,-0.24609 -0.54492,-0.2461 -0.90821,-0.68555 -0.35742,-0.43945 -0.53906,-1.01953 -0.17578,-0.58008 -0.17578,-1.24219 v -0.1875 q 0,-0.66211 0.17578,-1.24219 0.18164,-0.58007 0.53906,-1.01953 0.36329,-0.43945 0.90821,-0.68554 0.54492,-0.2461 1.27148,-0.2461 0.76758,0 1.34766,0.29883 0.58594,0.29883 0.91406,0.84375 0.33399,0.54492 0.3457,1.2832 h -1.45898 q -0.0117,-0.33984 -0.15234,-0.60937 -0.14063,-0.26953 -0.39844,-0.4336 -0.25781,-0.16406 -0.62695,-0.16406 -0.39258,0 -0.65625,0.16406 -0.25782,0.16407 -0.4043,0.45118 -0.14063,0.28125 -0.19922,0.63281 -0.0527,0.3457 -0.0527,0.72656 v 0.1875 q 0,0.38672 0.0527,0.73828 0.0586,0.35156 0.19922,0.63281 0.14648,0.2754 0.4043,0.43946 0.26367,0.16406 0.66796,0.16406 z m 5.69688,-5.23828 v 6.33984 h -1.55273 v -6.33984 z m -1.6582,-1.6582 q 0,-0.34571 0.23437,-0.57422 0.24024,-0.22852 0.64453,-0.22852 0.4043,0 0.63868,0.22852 0.24023,0.22851 0.24023,0.57422 0,0.33984 -0.24023,0.56836 -0.23438,0.22851 -0.63868,0.22851 -0.40429,0 -0.64453,-0.22851 -0.23437,-0.22852 -0.23437,-0.56836 z m 3.25937,4.89257 v -0.12304 q 0,-0.69727 0.19922,-1.28321 0.19922,-0.59179 0.58008,-1.02539 0.38086,-0.43359 0.93164,-0.67382 0.55078,-0.2461 1.25391,-0.2461 0.71484,0 1.26562,0.2461 0.55664,0.24023 0.9375,0.67382 0.38086,0.4336 0.58008,1.02539 0.19922,0.58594 0.19922,1.28321 v 0.12304 q 0,0.69141 -0.19922,1.28321 -0.19922,0.58593 -0.58008,1.02539 -0.38086,0.43359 -0.93164,0.67383 -0.55078,0.24023 -1.25976,0.24023 -0.70313,0 -1.25977,-0.24023 -0.55664,-0.24024 -0.9375,-0.67383 -0.38086,-0.43946 -0.58008,-1.02539 -0.19922,-0.5918 -0.19922,-1.28321 z m 1.54688,-0.12304 v 0.12304 q 0,0.41602 0.082,0.7793 0.082,0.36328 0.25195,0.63867 0.16993,0.27539 0.43946,0.4336 0.27539,0.15234 0.65625,0.15234 0.375,0 0.64453,-0.15234 0.26953,-0.15821 0.43945,-0.4336 0.17578,-0.27539 0.25781,-0.63867 0.082,-0.36328 0.082,-0.7793 v -0.12304 q 0,-0.41016 -0.082,-0.76758 -0.082,-0.36328 -0.25781,-0.63867 -0.16992,-0.28125 -0.44531,-0.43946 -0.26953,-0.16406 -0.65039,-0.16406 -0.375,0 -0.64453,0.16406 -0.26953,0.15821 -0.43946,0.43946 -0.16992,0.27539 -0.25195,0.63867 -0.082,0.35742 -0.082,0.76758 z m 0.65039,-3.99024 1.14844,-1.78125 h 1.71093 l -1.5996,1.78125 z"
       id="path4" />
  </g>
  <metadata
     id="metadata4">
    <rdf:RDF>
      <cc:Work
         rdf:about="">
        <dc:title>pantallaMesa de trabajo 1 copia 15</dc:title>
      </cc:Work>
    </rdf:RDF>
  </metadata>
</svg>
