<?xml version="1.0" encoding="UTF-8" standalone="no"?>
<svg
   id="svg94"
   width="230.148"
   height="108.051"
   version="1.1"
   sodipodi:docname="conselleria_optimized.svg"
   inkscape:version="1.3.2 (091e20ef0f, 2023-11-25)"
   xmlns:inkscape="http://www.inkscape.org/namespaces/inkscape"
   xmlns:sodipodi="http://sodipodi.sourceforge.net/DTD/sodipodi-0.dtd"
   xmlns="http://www.w3.org/2000/svg"
   xmlns:svg="http://www.w3.org/2000/svg">
  <sodipodi:namedview
     id="namedview1"
     pagecolor="#ffffff"
     bordercolor="#000000"
     borderopacity="0.25"
     inkscape:showpageshadow="2"
     inkscape:pageopacity="0.0"
     inkscape:pagecheckerboard="0"
     inkscape:deskcolor="#d1d1d1"
     inkscape:zoom="8.6770254"
     inkscape:cx="115.074"
     inkscape:cy="53.993158"
     inkscape:window-width="2560"
     inkscape:window-height="1403"
     inkscape:window-x="2560"
     inkscape:window-y="0"
     inkscape:window-maximized="1"
     inkscape:current-layer="svg94" />
  <path
     id="path4"
     style="font-weight:600;line-height:1.3;font-family:Roboto;-inkscape-font-specification:'Roboto Semi-Bold';letter-spacing:0.4px;display:inline;fill:#c8102e"
     d="m 250.548,611.372 h 1.612 v 5.666 q 0,0.979 -0.422,1.647 -0.422,0.662 -1.149,1.001 -0.726,0.334 -1.652,0.334 -0.937,0 -1.67,-0.334 -0.732,-0.34 -1.148,-1.001 -0.416,-0.668 -0.416,-1.647 v -5.666 h 1.611 v 5.666 q 0,0.598 0.2,0.979 0.198,0.375 0.562,0.556 0.363,0.182 0.861,0.182 0.504,0 0.861,-0.182 0.364,-0.181 0.557,-0.556 0.193,-0.381 0.193,-0.979 z m 4.936,3.545 v 4.986 h -1.547 v -6.34 h 1.453 z m -0.247,1.588 h -0.457 q 0.006,-0.692 0.188,-1.254 0.182,-0.563 0.51,-0.967 0.334,-0.404 0.79,-0.621 0.458,-0.217 1.02,-0.217 0.457,0 0.826,0.13 0.37,0.128 0.633,0.41 0.27,0.28 0.41,0.738 0.147,0.45 0.147,1.113 v 4.066 h -1.559 v -4.078 q 0,-0.433 -0.129,-0.685 -0.123,-0.252 -0.363,-0.358 -0.234,-0.105 -0.58,-0.105 -0.357,0 -0.627,0.146 -0.264,0.14 -0.445,0.393 -0.176,0.252 -0.27,0.58 -0.094,0.328 -0.094,0.709 z m 7.473,-2.942 v 6.34 h -1.553 v -6.34 z m -1.658,-1.658 q 0,-0.345 0.234,-0.574 0.24,-0.228 0.644,-0.228 0.405,0 0.64,0.228 0.24,0.229 0.24,0.574 0,0.34 -0.24,0.569 -0.235,0.228 -0.64,0.228 -0.404,0 -0.644,-0.228 -0.234,-0.229 -0.234,-0.569 z m 5.638,6.826 1.476,-5.168 h 1.618 l -2.174,6.34 h -0.985 z m -1.078,-5.168 1.494,5.18 0.052,1.16 h -0.99 l -2.18,-6.34 z m 8.157,6.457 q -0.72,0 -1.294,-0.234 -0.575,-0.234 -0.979,-0.65 -0.398,-0.422 -0.615,-0.979 -0.211,-0.562 -0.211,-1.207 v -0.234 q 0,-0.733 0.21,-1.33 0.212,-0.604 0.598,-1.037 0.387,-0.434 0.926,-0.668 0.54,-0.235 1.19,-0.235 0.674,0 1.19,0.229 0.515,0.222 0.86,0.633 0.346,0.41 0.522,0.984 0.176,0.568 0.176,1.26 v 0.65 h -4.969 v -1.066 h 3.445 v -0.117 q -0.011,-0.37 -0.14,-0.674 -0.13,-0.31 -0.399,-0.492 -0.27,-0.188 -0.697,-0.188 -0.346,0 -0.604,0.152 -0.251,0.147 -0.421,0.422 -0.164,0.27 -0.247,0.645 -0.082,0.375 -0.082,0.832 v 0.234 q 0,0.399 0.106,0.738 0.111,0.34 0.322,0.592 0.217,0.246 0.516,0.387 0.305,0.135 0.691,0.135 0.487,0 0.88,-0.188 0.398,-0.193 0.69,-0.568 l 0.78,0.808 q -0.2,0.293 -0.54,0.563 -0.333,0.27 -0.808,0.44 -0.474,0.163 -1.096,0.163 z m 5.557,-5.162 v 5.045 h -1.547 v -6.34 h 1.465 z m 1.927,-1.336 -0.023,1.442 q -0.129,-0.024 -0.293,-0.035 -0.158,-0.012 -0.299,-0.012 -0.357,0 -0.627,0.1 -0.27,0.093 -0.45,0.275 -0.177,0.182 -0.27,0.445 -0.094,0.258 -0.106,0.586 l -0.334,-0.04 q 0,-0.604 0.123,-1.12 0.123,-0.516 0.358,-0.902 0.234,-0.387 0.586,-0.598 0.357,-0.217 0.82,-0.217 0.129,0 0.275,0.024 0.153,0.017 0.24,0.052 z m 4.73,4.647 q 0,-0.2 -0.105,-0.358 -0.105,-0.158 -0.398,-0.287 -0.287,-0.134 -0.844,-0.252 -0.492,-0.105 -0.908,-0.263 -0.416,-0.158 -0.715,-0.381 -0.299,-0.229 -0.469,-0.533 -0.164,-0.31 -0.164,-0.715 0,-0.393 0.17,-0.738 0.17,-0.352 0.492,-0.616 0.322,-0.27 0.785,-0.422 0.463,-0.158 1.043,-0.158 0.809,0 1.389,0.264 0.586,0.264 0.896,0.726 0.31,0.458 0.31,1.032 h -1.546 q 0,-0.252 -0.117,-0.457 -0.111,-0.205 -0.346,-0.328 -0.234,-0.13 -0.592,-0.13 -0.322,0 -0.545,0.106 -0.216,0.106 -0.328,0.276 -0.111,0.17 -0.111,0.375 0,0.152 0.059,0.275 0.064,0.117 0.205,0.217 0.14,0.1 0.38,0.181 0.247,0.082 0.604,0.159 0.709,0.14 1.236,0.375 0.534,0.228 0.832,0.609 0.3,0.38 0.3,0.973 0,0.421 -0.182,0.773 -0.182,0.346 -0.528,0.604 -0.345,0.257 -0.826,0.404 -0.48,0.14 -1.084,0.14 -0.873,0 -1.476,-0.31 -0.604,-0.316 -0.915,-0.797 -0.31,-0.486 -0.31,-1.008 h 1.482 q 0.018,0.37 0.2,0.592 0.181,0.223 0.457,0.322 0.28,0.094 0.591,0.094 0.352,0 0.592,-0.094 0.24,-0.1 0.363,-0.263 0.124,-0.17 0.124,-0.387 z m 4.725,-4.606 v 6.34 h -1.553 v -6.34 z m -1.658,-1.658 q 0,-0.345 0.234,-0.574 0.24,-0.228 0.644,-0.228 0.405,0 0.64,0.228 0.24,0.229 0.24,0.574 0,0.34 -0.24,0.569 -0.235,0.228 -0.64,0.228 -0.404,0 -0.644,-0.228 -0.234,-0.229 -0.234,-0.569 z m 6.534,1.658 v 1.114 h -3.633 v -1.114 z m -2.66,-1.558 h 1.553 v 6.07 q 0,0.281 0.076,0.434 0.076,0.152 0.229,0.205 0.152,0.053 0.363,0.053 0.152,0 0.281,-0.018 0.129,-0.018 0.217,-0.035 l 0.006,1.16 q -0.193,0.064 -0.44,0.105 -0.24,0.041 -0.544,0.041 -0.522,0 -0.915,-0.175 -0.392,-0.182 -0.609,-0.58 -0.217,-0.405 -0.217,-1.067 z m 7.584,6.55 v -2.923 q 0,-0.322 -0.112,-0.557 -0.11,-0.234 -0.34,-0.363 -0.228,-0.129 -0.58,-0.129 -0.31,0 -0.544,0.105 -0.229,0.106 -0.352,0.3 -0.123,0.187 -0.123,0.433 h -1.553 q 0,-0.393 0.188,-0.744 0.187,-0.358 0.533,-0.633 0.351,-0.281 0.838,-0.44 0.492,-0.158 1.101,-0.158 0.721,0 1.284,0.246 0.568,0.24 0.89,0.727 0.328,0.486 0.328,1.225 v 2.765 q 0,0.475 0.059,0.815 0.064,0.334 0.187,0.58 v 0.1 h -1.576 q -0.111,-0.241 -0.17,-0.61 -0.058,-0.375 -0.058,-0.738 z m 0.217,-2.513 0.011,0.92 h -0.978 q -0.364,0 -0.639,0.076 -0.275,0.07 -0.451,0.211 -0.176,0.135 -0.264,0.328 -0.088,0.188 -0.088,0.428 0,0.234 0.106,0.422 0.111,0.187 0.316,0.299 0.211,0.105 0.492,0.105 0.41,0 0.715,-0.164 0.305,-0.17 0.475,-0.41 0.17,-0.24 0.181,-0.457 l 0.446,0.668 q -0.082,0.24 -0.246,0.51 -0.164,0.27 -0.422,0.503 -0.258,0.235 -0.621,0.387 -0.364,0.152 -0.844,0.152 -0.615,0 -1.102,-0.246 -0.486,-0.246 -0.767,-0.673 -0.281,-0.428 -0.281,-0.973 0,-0.504 0.187,-0.89 0.188,-0.387 0.557,-0.651 0.369,-0.27 0.914,-0.404 0.55,-0.141 1.26,-0.141 z m 6.136,-2.479 v 1.114 h -3.633 v -1.114 z m -2.66,-1.558 h 1.552 v 6.07 q 0,0.281 0.077,0.434 0.076,0.152 0.228,0.205 0.153,0.053 0.363,0.053 0.153,0 0.282,-0.018 0.129,-0.018 0.216,-0.035 l 0.006,1.16 q -0.193,0.064 -0.439,0.105 -0.24,0.041 -0.545,0.041 -0.521,0 -0.914,-0.175 -0.393,-0.182 -0.61,-0.58 -0.216,-0.405 -0.216,-1.067 z m 7.577,6.164 q 0,-0.2 -0.105,-0.358 -0.105,-0.158 -0.398,-0.287 -0.288,-0.134 -0.844,-0.252 -0.492,-0.105 -0.908,-0.263 -0.416,-0.158 -0.715,-0.381 -0.3,-0.229 -0.469,-0.533 -0.164,-0.31 -0.164,-0.715 0,-0.393 0.17,-0.738 0.17,-0.352 0.492,-0.616 0.322,-0.27 0.785,-0.422 0.463,-0.158 1.043,-0.158 0.809,0 1.389,0.264 0.586,0.264 0.896,0.726 0.31,0.458 0.31,1.032 h -1.546 q 0,-0.252 -0.117,-0.457 -0.112,-0.205 -0.346,-0.328 -0.234,-0.13 -0.592,-0.13 -0.322,0 -0.545,0.106 -0.216,0.106 -0.328,0.276 -0.111,0.17 -0.111,0.375 0,0.152 0.059,0.275 0.064,0.117 0.205,0.217 0.14,0.1 0.38,0.181 0.247,0.082 0.604,0.159 0.709,0.14 1.236,0.375 0.534,0.228 0.832,0.609 0.3,0.38 0.3,0.973 0,0.421 -0.182,0.773 -0.182,0.346 -0.528,0.604 -0.346,0.257 -0.826,0.404 -0.48,0.14 -1.084,0.14 -0.873,0 -1.477,-0.31 -0.603,-0.316 -0.914,-0.797 -0.31,-0.486 -0.31,-1.008 h 1.482 q 0.018,0.37 0.2,0.592 0.181,0.223 0.457,0.322 0.28,0.094 0.591,0.094 0.352,0 0.592,-0.094 0.24,-0.1 0.363,-0.263 0.123,-0.17 0.123,-0.387 z m 8.107,-4.606 v 6.34 h -1.553 v -6.34 z m -1.658,-1.658 q 0,-0.345 0.234,-0.574 0.24,-0.228 0.645,-0.228 0.404,0 0.638,0.228 0.24,0.229 0.24,0.574 0,0.34 -0.24,0.569 -0.234,0.228 -0.638,0.228 -0.405,0 -0.645,-0.228 -0.234,-0.229 -0.234,-0.569 z m 13.942,3.516 v 0.44 q 0,0.966 -0.257,1.74 -0.258,0.767 -0.733,1.306 -0.474,0.54 -1.13,0.826 -0.657,0.287 -1.46,0.287 -0.79,0 -1.453,-0.287 -0.656,-0.287 -1.136,-0.826 -0.48,-0.539 -0.745,-1.306 -0.263,-0.774 -0.263,-1.74 v -0.44 q 0,-0.973 0.263,-1.74 0.264,-0.768 0.739,-1.307 0.474,-0.545 1.13,-0.832 0.663,-0.287 1.454,-0.287 0.802,0 1.459,0.287 0.656,0.287 1.13,0.832 0.481,0.54 0.739,1.307 0.263,0.767 0.263,1.74 z m -1.628,0.44 v -0.452 q 0,-0.697 -0.13,-1.224 -0.128,-0.534 -0.38,-0.897 -0.252,-0.363 -0.621,-0.545 -0.37,-0.187 -0.832,-0.187 -0.47,0 -0.832,0.187 -0.358,0.182 -0.61,0.545 -0.252,0.363 -0.386,0.897 -0.13,0.527 -0.13,1.224 v 0.451 q 0,0.692 0.13,1.225 0.134,0.533 0.386,0.902 0.258,0.364 0.621,0.551 0.364,0.188 0.832,0.188 0.47,0 0.832,-0.188 0.364,-0.187 0.61,-0.55 0.252,-0.37 0.38,-0.903 0.13,-0.533 0.13,-1.225 z m 5.878,2.94 q 0.328,0 0.586,-0.128 0.258,-0.13 0.41,-0.363 0.158,-0.235 0.17,-0.545 h 1.46 q -0.013,0.644 -0.364,1.154 -0.352,0.51 -0.938,0.809 -0.58,0.292 -1.3,0.292 -0.733,0 -1.278,-0.246 -0.545,-0.246 -0.908,-0.685 -0.357,-0.44 -0.54,-1.02 -0.175,-0.58 -0.175,-1.242 v -0.187 q 0,-0.663 0.176,-1.243 0.182,-0.58 0.539,-1.02 0.363,-0.439 0.908,-0.685 0.545,-0.246 1.272,-0.246 0.767,0 1.347,0.3 0.586,0.298 0.914,0.843 0.334,0.545 0.346,1.283 h -1.459 q -0.012,-0.34 -0.152,-0.61 -0.14,-0.269 -0.399,-0.433 -0.258,-0.164 -0.627,-0.164 -0.392,0 -0.656,0.164 -0.258,0.164 -0.404,0.451 -0.14,0.281 -0.2,0.633 -0.052,0.346 -0.052,0.727 v 0.187 q 0,0.387 0.053,0.738 0.058,0.352 0.199,0.633 0.146,0.276 0.404,0.44 0.264,0.164 0.668,0.164 z m 7.83,-0.404 v -4.834 h 1.558 v 6.34 h -1.464 z m 0.199,-1.312 0.48,-0.012 q 0,0.639 -0.14,1.178 -0.14,0.539 -0.44,0.937 -0.293,0.393 -0.744,0.616 -0.45,0.216 -1.066,0.216 -0.469,0 -0.856,-0.128 -0.386,-0.135 -0.668,-0.416 -0.275,-0.288 -0.427,-0.733 -0.153,-0.451 -0.153,-1.084 v -4.096 h 1.547 v 4.108 q 0,0.316 0.07,0.527 0.077,0.211 0.206,0.346 0.134,0.129 0.31,0.187 0.182,0.053 0.387,0.053 0.562,0 0.885,-0.223 0.328,-0.228 0.468,-0.609 0.141,-0.387 0.141,-0.867 z m 4.671,-2.303 v 7.559 h -1.552 v -8.778 h 1.435 z m 4.073,1.887 v 0.123 q 0,0.691 -0.164,1.283 -0.159,0.586 -0.47,1.026 -0.31,0.433 -0.773,0.68 -0.457,0.24 -1.054,0.24 -0.586,0 -1.02,-0.223 -0.433,-0.229 -0.732,-0.645 -0.299,-0.416 -0.48,-0.967 -0.176,-0.556 -0.264,-1.212 v -0.393 q 0.088,-0.697 0.263,-1.266 0.182,-0.574 0.48,-0.99 0.3,-0.422 0.727,-0.65 0.434,-0.229 1.014,-0.229 0.604,0 1.06,0.229 0.464,0.228 0.78,0.656 0.316,0.428 0.475,1.02 0.158,0.591 0.158,1.318 z m -1.553,0.123 v -0.123 q 0,-0.422 -0.076,-0.78 -0.076,-0.363 -0.235,-0.632 -0.158,-0.276 -0.41,-0.428 -0.252,-0.152 -0.61,-0.152 -0.357,0 -0.614,0.117 -0.258,0.117 -0.422,0.334 -0.164,0.217 -0.258,0.516 -0.088,0.292 -0.117,0.65 v 0.973 q 0.052,0.433 0.205,0.779 0.152,0.346 0.445,0.55 0.299,0.206 0.774,0.206 0.357,0 0.609,-0.158 0.252,-0.159 0.41,-0.434 0.158,-0.281 0.229,-0.645 0.07,-0.363 0.07,-0.773 z m 6.576,1.764 v -2.924 q 0,-0.322 -0.112,-0.557 -0.11,-0.234 -0.34,-0.363 -0.228,-0.129 -0.58,-0.129 -0.31,0 -0.544,0.105 -0.229,0.106 -0.352,0.3 -0.123,0.187 -0.123,0.433 h -1.553 q 0,-0.393 0.188,-0.744 0.187,-0.358 0.533,-0.633 0.352,-0.281 0.838,-0.44 0.492,-0.158 1.101,-0.158 0.721,0 1.284,0.246 0.568,0.24 0.89,0.727 0.328,0.486 0.328,1.225 v 2.765 q 0,0.475 0.059,0.815 0.064,0.334 0.187,0.58 v 0.1 h -1.576 q -0.111,-0.241 -0.17,-0.61 -0.058,-0.375 -0.058,-0.738 z m 0.217,-2.514 0.011,0.92 h -0.978 q -0.364,0 -0.639,0.076 -0.275,0.07 -0.451,0.211 -0.176,0.135 -0.264,0.328 -0.088,0.188 -0.088,0.428 0,0.234 0.106,0.422 0.111,0.187 0.316,0.299 0.211,0.105 0.492,0.105 0.41,0 0.715,-0.164 0.305,-0.17 0.475,-0.41 0.17,-0.24 0.181,-0.457 l 0.446,0.668 q -0.082,0.24 -0.246,0.51 -0.164,0.27 -0.422,0.503 -0.258,0.235 -0.621,0.387 -0.364,0.152 -0.844,0.152 -0.615,0 -1.102,-0.246 -0.486,-0.246 -0.767,-0.673 -0.281,-0.428 -0.281,-0.973 0,-0.504 0.187,-0.89 0.188,-0.387 0.557,-0.651 0.369,-0.27 0.914,-0.404 0.55,-0.141 1.26,-0.141 z m 5.737,2.76 q 0.329,0 0.586,-0.13 0.258,-0.128 0.41,-0.362 0.159,-0.235 0.17,-0.545 h 1.46 q -0.012,0.644 -0.364,1.154 -0.351,0.51 -0.937,0.808 -0.58,0.293 -1.301,0.293 -0.733,0 -1.277,-0.246 -0.545,-0.246 -0.909,-0.685 -0.357,-0.44 -0.539,-1.02 -0.175,-0.58 -0.175,-1.242 v -0.187 q 0,-0.663 0.175,-1.243 0.182,-0.58 0.54,-1.02 0.363,-0.439 0.908,-0.685 0.544,-0.246 1.271,-0.246 0.768,0 1.348,0.3 0.586,0.298 0.914,0.843 0.334,0.545 0.345,1.283 h -1.459 q -0.011,-0.34 -0.152,-0.61 -0.14,-0.269 -0.398,-0.433 -0.258,-0.164 -0.627,-0.164 -0.393,0 -0.656,0.164 -0.258,0.164 -0.405,0.451 -0.14,0.281 -0.199,0.633 -0.053,0.346 -0.053,0.727 v 0.187 q 0,0.387 0.053,0.738 0.059,0.352 0.2,0.633 0.146,0.276 0.404,0.44 0.263,0.164 0.667,0.164 z m 5.697,-5.239 v 6.34 h -1.552 v -6.34 z m -1.658,-1.658 q 0,-0.345 0.235,-0.574 0.24,-0.228 0.644,-0.228 0.404,0 0.639,0.228 0.24,0.229 0.24,0.574 0,0.34 -0.24,0.569 -0.235,0.228 -0.639,0.228 -0.404,0 -0.644,-0.228 -0.235,-0.229 -0.235,-0.569 z m 3.26,4.893 v -0.123 q 0,-0.697 0.199,-1.283 0.199,-0.592 0.58,-1.026 0.38,-0.433 0.931,-0.674 0.551,-0.246 1.254,-0.246 0.715,0 1.266,0.246 0.557,0.24 0.937,0.674 0.381,0.434 0.58,1.026 0.2,0.585 0.2,1.283 v 0.123 q 0,0.691 -0.2,1.283 -0.199,0.586 -0.58,1.025 -0.38,0.434 -0.931,0.674 -0.55,0.24 -1.26,0.24 -0.703,0 -1.26,-0.24 -0.556,-0.24 -0.937,-0.674 -0.381,-0.439 -0.58,-1.025 -0.2,-0.592 -0.2,-1.283 z m 1.546,-0.123 v 0.123 q 0,0.416 0.082,0.78 0.082,0.362 0.252,0.638 0.17,0.275 0.44,0.433 0.275,0.153 0.656,0.153 0.375,0 0.645,-0.153 0.27,-0.158 0.439,-0.433 0.176,-0.276 0.258,-0.639 0.082,-0.363 0.082,-0.78 v -0.122 q 0,-0.41 -0.082,-0.768 -0.082,-0.363 -0.258,-0.638 -0.17,-0.282 -0.445,-0.44 -0.27,-0.164 -0.65,-0.164 -0.376,0 -0.645,0.164 -0.27,0.158 -0.44,0.44 -0.17,0.275 -0.252,0.638 -0.082,0.358 -0.082,0.768 z m 0.65,-3.99 1.15,-1.782 h 1.71 l -1.6,1.782 z m -122.87,-11.188 h 1.612 q -0.065,0.855 -0.475,1.517 -0.41,0.656 -1.142,1.031 -0.733,0.375 -1.776,0.375 -0.803,0 -1.447,-0.28 -0.639,-0.288 -1.096,-0.815 -0.45,-0.533 -0.691,-1.278 -0.24,-0.75 -0.24,-1.681 v -0.65 q 0,-0.932 0.246,-1.682 0.246,-0.75 0.703,-1.278 0.463,-0.533 1.107,-0.82 0.65,-0.287 1.453,-0.287 1.043,0 1.764,0.387 0.72,0.38 1.12,1.049 0.398,0.667 0.48,1.535 H 250.8 q -0.047,-0.54 -0.234,-0.914 -0.182,-0.375 -0.55,-0.569 -0.364,-0.199 -0.968,-0.199 -0.468,0 -0.826,0.176 -0.351,0.176 -0.586,0.527 -0.234,0.346 -0.351,0.867 -0.117,0.516 -0.117,1.196 v 0.662 q 0,0.65 0.105,1.166 0.105,0.515 0.328,0.873 0.223,0.357 0.574,0.545 0.352,0.187 0.838,0.187 0.592,0 0.961,-0.187 0.375,-0.188 0.569,-0.551 0.199,-0.363 0.251,-0.902 z m 2.861,-0.3 v -0.122 q 0,-0.697 0.2,-1.283 0.199,-0.592 0.58,-1.026 0.38,-0.433 0.931,-0.674 0.551,-0.246 1.254,-0.246 0.715,0 1.266,0.246 0.557,0.24 0.937,0.674 0.381,0.434 0.58,1.026 0.2,0.585 0.2,1.283 v 0.123 q 0,0.691 -0.2,1.283 -0.199,0.586 -0.58,1.025 -0.38,0.434 -0.931,0.674 -0.551,0.24 -1.26,0.24 -0.703,0 -1.26,-0.24 -0.556,-0.24 -0.937,-0.674 -0.381,-0.439 -0.58,-1.025 -0.2,-0.592 -0.2,-1.283 z m 1.547,-0.122 v 0.123 q 0,0.416 0.082,0.78 0.082,0.362 0.252,0.638 0.17,0.275 0.44,0.433 0.275,0.153 0.656,0.153 0.375,0 0.644,-0.153 0.27,-0.158 0.44,-0.433 0.176,-0.276 0.258,-0.639 0.082,-0.363 0.082,-0.78 v -0.122 q 0,-0.41 -0.082,-0.768 -0.082,-0.363 -0.258,-0.638 -0.17,-0.282 -0.445,-0.44 -0.27,-0.164 -0.65,-0.164 -0.376,0 -0.645,0.164 -0.27,0.158 -0.44,0.44 -0.17,0.275 -0.252,0.638 -0.082,0.358 -0.082,0.768 z m 7.437,-1.758 v 4.986 h -1.546 v -6.34 h 1.453 z m -0.246,1.588 h -0.457 q 0.006,-0.692 0.188,-1.254 0.181,-0.563 0.51,-0.967 0.334,-0.404 0.79,-0.62 0.458,-0.218 1.02,-0.218 0.457,0 0.826,0.13 0.37,0.128 0.633,0.41 0.27,0.28 0.41,0.738 0.147,0.45 0.147,1.113 v 4.066 h -1.56 v -4.078 q 0,-0.433 -0.129,-0.685 -0.123,-0.252 -0.363,-0.358 -0.234,-0.105 -0.58,-0.105 -0.358,0 -0.627,0.146 -0.264,0.14 -0.445,0.393 -0.176,0.252 -0.27,0.58 -0.094,0.328 -0.094,0.709 z m 9.318,1.664 q 0,-0.2 -0.105,-0.358 -0.106,-0.158 -0.399,-0.287 -0.287,-0.134 -0.843,-0.252 -0.493,-0.105 -0.909,-0.263 -0.416,-0.158 -0.714,-0.381 -0.3,-0.229 -0.47,-0.533 -0.163,-0.31 -0.163,-0.715 0,-0.393 0.17,-0.738 0.17,-0.352 0.492,-0.616 0.322,-0.27 0.785,-0.422 0.463,-0.158 1.043,-0.158 0.809,0 1.389,0.264 0.586,0.264 0.896,0.726 0.31,0.458 0.31,1.032 h -1.546 q 0,-0.252 -0.117,-0.457 -0.112,-0.205 -0.346,-0.328 -0.234,-0.13 -0.592,-0.13 -0.322,0 -0.545,0.106 -0.217,0.106 -0.328,0.276 -0.111,0.17 -0.111,0.375 0,0.152 0.058,0.275 0.065,0.117 0.205,0.217 0.141,0.1 0.381,0.181 0.246,0.082 0.604,0.159 0.709,0.14 1.236,0.375 0.533,0.228 0.832,0.609 0.299,0.38 0.299,0.973 0,0.421 -0.182,0.773 -0.181,0.346 -0.527,0.604 -0.346,0.257 -0.826,0.404 -0.48,0.14 -1.084,0.14 -0.873,0 -1.477,-0.31 -0.603,-0.316 -0.914,-0.797 -0.31,-0.486 -0.31,-1.008 h 1.482 q 0.018,0.37 0.2,0.592 0.181,0.223 0.456,0.322 0.282,0.094 0.592,0.094 0.352,0 0.592,-0.094 0.24,-0.1 0.363,-0.263 0.123,-0.17 0.123,-0.387 z m 5.932,1.851 q -0.721,0 -1.295,-0.234 -0.575,-0.234 -0.979,-0.65 -0.398,-0.422 -0.615,-0.979 -0.211,-0.562 -0.211,-1.207 v -0.234 q 0,-0.733 0.21,-1.33 0.212,-0.604 0.598,-1.037 0.387,-0.434 0.926,-0.668 0.54,-0.235 1.19,-0.235 0.674,0 1.19,0.229 0.515,0.222 0.86,0.633 0.346,0.41 0.522,0.984 0.176,0.568 0.176,1.26 v 0.65 h -4.969 v -1.066 h 3.445 v -0.117 q -0.011,-0.37 -0.14,-0.674 -0.13,-0.31 -0.399,-0.493 -0.27,-0.187 -0.697,-0.187 -0.346,0 -0.604,0.152 -0.251,0.147 -0.421,0.422 -0.164,0.27 -0.246,0.645 -0.082,0.375 -0.082,0.832 v 0.234 q 0,0.399 0.105,0.738 0.111,0.34 0.322,0.592 0.217,0.246 0.516,0.387 0.305,0.135 0.691,0.135 0.487,0 0.88,-0.188 0.398,-0.193 0.69,-0.568 l 0.78,0.808 q -0.2,0.293 -0.54,0.563 -0.333,0.27 -0.808,0.44 -0.474,0.163 -1.095,0.163 z m 5.65,-9.117 v 9 h -1.553 v -9 z m 3.517,0 v 9 h -1.553 v -9 z m 4.724,9.117 q -0.72,0 -1.295,-0.234 -0.574,-0.234 -0.979,-0.65 -0.398,-0.422 -0.615,-0.979 -0.21,-0.562 -0.21,-1.207 v -0.234 q 0,-0.733 0.21,-1.33 0.211,-0.604 0.598,-1.037 0.387,-0.434 0.926,-0.668 0.539,-0.235 1.19,-0.235 0.673,0 1.189,0.229 0.515,0.222 0.86,0.633 0.347,0.41 0.522,0.984 0.176,0.568 0.176,1.26 v 0.65 h -4.969 v -1.066 h 3.446 v -0.117 q -0.012,-0.37 -0.14,-0.674 -0.13,-0.31 -0.4,-0.493 -0.269,-0.187 -0.697,-0.187 -0.345,0 -0.603,0.152 -0.252,0.147 -0.422,0.422 -0.164,0.27 -0.246,0.645 -0.082,0.375 -0.082,0.832 v 0.234 q 0,0.399 0.105,0.738 0.112,0.34 0.323,0.592 0.216,0.246 0.515,0.387 0.305,0.135 0.692,0.135 0.486,0 0.879,-0.188 0.398,-0.193 0.691,-0.568 l 0.78,0.808 q -0.2,0.293 -0.54,0.563 -0.334,0.27 -0.808,0.44 -0.475,0.163 -1.096,0.163 z m 5.556,-5.162 v 5.045 h -1.547 v -6.34 h 1.465 z m 1.928,-1.336 -0.024,1.442 q -0.128,-0.024 -0.292,-0.035 -0.159,-0.012 -0.3,-0.012 -0.357,0 -0.626,0.1 -0.27,0.093 -0.451,0.275 -0.176,0.182 -0.27,0.445 -0.094,0.258 -0.105,0.586 l -0.334,-0.04 q 0,-0.604 0.123,-1.12 0.123,-0.516 0.357,-0.902 0.234,-0.387 0.586,-0.598 0.357,-0.217 0.82,-0.217 0.13,0 0.276,0.024 0.152,0.017 0.24,0.052 z m 2.884,0.041 v 6.34 h -1.552 v -6.34 z m -1.658,-1.658 q 0,-0.345 0.234,-0.574 0.24,-0.229 0.645,-0.229 0.404,0 0.639,0.229 0.24,0.229 0.24,0.574 0,0.34 -0.24,0.569 -0.235,0.228 -0.639,0.228 -0.404,0 -0.645,-0.228 -0.234,-0.229 -0.234,-0.569 z m 7.027,6.65 v -2.923 q 0,-0.322 -0.111,-0.557 -0.112,-0.234 -0.34,-0.363 -0.229,-0.129 -0.58,-0.129 -0.31,0 -0.545,0.105 -0.229,0.106 -0.352,0.3 -0.123,0.187 -0.123,0.433 h -1.552 q 0,-0.393 0.187,-0.744 0.188,-0.358 0.533,-0.633 0.352,-0.281 0.838,-0.44 0.492,-0.158 1.102,-0.158 0.72,0 1.283,0.246 0.568,0.24 0.89,0.727 0.329,0.486 0.329,1.224 v 2.766 q 0,0.475 0.058,0.815 0.065,0.334 0.188,0.58 v 0.1 H 307.5 q -0.112,-0.241 -0.17,-0.61 -0.059,-0.375 -0.059,-0.738 z m 0.217,-2.513 0.012,0.92 h -0.979 q -0.363,0 -0.639,0.076 -0.275,0.07 -0.45,0.211 -0.177,0.135 -0.265,0.328 -0.087,0.188 -0.087,0.428 0,0.234 0.105,0.422 0.111,0.187 0.316,0.299 0.211,0.105 0.493,0.105 0.41,0 0.714,-0.164 0.305,-0.17 0.475,-0.41 0.17,-0.24 0.182,-0.457 l 0.445,0.668 q -0.082,0.24 -0.246,0.51 -0.164,0.269 -0.422,0.503 -0.258,0.235 -0.621,0.387 -0.363,0.152 -0.844,0.152 -0.615,0 -1.101,-0.246 -0.487,-0.246 -0.768,-0.673 -0.281,-0.428 -0.281,-0.973 0,-0.504 0.187,-0.89 0.188,-0.387 0.557,-0.651 0.37,-0.27 0.914,-0.404 0.55,-0.141 1.26,-0.141 z m 10.321,2.514 v -7.653 h 1.559 v 9 h -1.406 z m -4.072,-1.746 v -0.124 q 0,-0.726 0.164,-1.318 0.17,-0.598 0.492,-1.025 0.323,-0.428 0.78,-0.662 0.462,-0.235 1.048,-0.235 0.569,0 0.99,0.229 0.428,0.228 0.727,0.65 0.305,0.422 0.487,1.002 0.181,0.574 0.263,1.266 v 0.334 q -0.082,0.674 -0.263,1.236 -0.182,0.563 -0.487,0.984 -0.299,0.416 -0.726,0.645 -0.428,0.228 -1.002,0.228 -0.58,0 -1.043,-0.24 -0.457,-0.24 -0.78,-0.674 -0.316,-0.433 -0.486,-1.02 -0.164,-0.585 -0.164,-1.276 z m 1.553,-0.124 v 0.124 q 0,0.41 0.07,0.767 0.07,0.358 0.229,0.633 0.158,0.27 0.404,0.422 0.252,0.152 0.61,0.152 0.456,0 0.75,-0.2 0.298,-0.204 0.462,-0.556 0.164,-0.357 0.211,-0.802 v -0.92 q -0.023,-0.352 -0.123,-0.65 -0.094,-0.3 -0.27,-0.516 -0.17,-0.217 -0.421,-0.34 -0.252,-0.123 -0.598,-0.123 -0.357,0 -0.61,0.158 -0.251,0.152 -0.41,0.428 -0.158,0.275 -0.234,0.638 -0.07,0.364 -0.07,0.785 z m 6.757,-5.783 v 0.803 l -0.164,2.297 h -0.99 v -3.1 z m 7.256,7.735 v 1.265 h -4.535 v -1.265 z m -4.043,-7.266 v 8.531 h -1.612 v -8.531 z m 3.45,3.522 v 1.236 h -3.942 v -1.236 z m 0.575,-3.522 v 1.272 h -4.517 v -1.272 z m 5.105,7.184 v -7.653 h 1.559 v 9 h -1.406 z m -4.072,-1.746 v -0.124 q 0,-0.726 0.164,-1.318 0.17,-0.598 0.492,-1.025 0.322,-0.428 0.78,-0.662 0.462,-0.235 1.048,-0.235 0.569,0 0.99,0.229 0.428,0.228 0.727,0.65 0.305,0.422 0.486,1.002 0.182,0.574 0.264,1.266 v 0.334 q -0.082,0.674 -0.264,1.236 -0.181,0.563 -0.486,0.984 -0.299,0.416 -0.726,0.645 -0.428,0.228 -1.002,0.228 -0.58,0 -1.043,-0.24 -0.457,-0.24 -0.78,-0.674 -0.316,-0.433 -0.486,-1.02 -0.164,-0.585 -0.164,-1.276 z m 1.553,-0.124 v 0.124 q 0,0.41 0.07,0.767 0.07,0.358 0.228,0.633 0.159,0.27 0.405,0.422 0.252,0.152 0.61,0.152 0.456,0 0.75,-0.2 0.298,-0.204 0.462,-0.556 0.164,-0.357 0.21,-0.802 v -0.92 q -0.022,-0.352 -0.122,-0.65 -0.094,-0.3 -0.27,-0.516 -0.17,-0.217 -0.421,-0.34 -0.252,-0.123 -0.598,-0.123 -0.358,0 -0.61,0.158 -0.251,0.152 -0.41,0.428 -0.158,0.275 -0.234,0.638 -0.07,0.364 -0.07,0.785 z m 9.646,1.711 v -4.834 h 1.558 v 6.34 h -1.465 z m 0.199,-1.312 0.48,-0.012 q 0,0.639 -0.14,1.178 -0.14,0.539 -0.44,0.937 -0.293,0.393 -0.744,0.616 -0.451,0.216 -1.066,0.216 -0.469,0 -0.856,-0.128 -0.386,-0.135 -0.668,-0.416 -0.275,-0.288 -0.427,-0.733 -0.153,-0.451 -0.153,-1.084 v -4.096 h 1.547 v 4.108 q 0,0.316 0.07,0.527 0.077,0.211 0.206,0.346 0.134,0.129 0.31,0.187 0.182,0.053 0.387,0.053 0.562,0 0.885,-0.223 0.328,-0.228 0.468,-0.609 0.14,-0.387 0.14,-0.867 z m 5.726,1.717 q 0.328,0 0.586,-0.13 0.258,-0.128 0.41,-0.362 0.158,-0.235 0.17,-0.545 h 1.46 q -0.013,0.644 -0.364,1.154 -0.352,0.51 -0.938,0.808 -0.58,0.293 -1.3,0.293 -0.733,0 -1.278,-0.246 -0.545,-0.246 -0.908,-0.685 -0.357,-0.44 -0.539,-1.02 -0.176,-0.58 -0.176,-1.242 v -0.187 q 0,-0.663 0.176,-1.243 0.182,-0.58 0.539,-1.02 0.363,-0.439 0.908,-0.685 0.545,-0.246 1.272,-0.246 0.767,0 1.347,0.3 0.586,0.298 0.914,0.843 0.334,0.545 0.346,1.283 h -1.459 q -0.012,-0.34 -0.152,-0.61 -0.14,-0.269 -0.399,-0.433 -0.257,-0.164 -0.627,-0.164 -0.392,0 -0.656,0.164 -0.258,0.164 -0.404,0.451 -0.14,0.281 -0.2,0.633 -0.052,0.346 -0.052,0.727 v 0.187 q 0,0.387 0.053,0.738 0.058,0.352 0.199,0.633 0.146,0.276 0.404,0.44 0.264,0.164 0.668,0.164 z m 7.549,-0.246 v -2.924 q 0,-0.322 -0.112,-0.557 -0.111,-0.234 -0.34,-0.363 -0.228,-0.129 -0.58,-0.129 -0.31,0 -0.545,0.105 -0.228,0.106 -0.351,0.3 -0.123,0.187 -0.123,0.433 h -1.553 q 0,-0.393 0.188,-0.744 0.187,-0.358 0.533,-0.633 0.351,-0.281 0.838,-0.44 0.492,-0.158 1.101,-0.158 0.72,0 1.283,0.246 0.569,0.24 0.891,0.727 0.328,0.486 0.328,1.225 v 2.765 q 0,0.475 0.059,0.815 0.064,0.334 0.187,0.58 v 0.1 h -1.576 q -0.111,-0.241 -0.17,-0.61 -0.058,-0.375 -0.058,-0.738 z m 0.216,-2.514 0.012,0.92 h -0.978 q -0.364,0 -0.64,0.076 -0.275,0.07 -0.45,0.211 -0.176,0.135 -0.264,0.328 -0.088,0.188 -0.088,0.428 0,0.234 0.106,0.422 0.11,0.187 0.316,0.299 0.21,0.105 0.492,0.105 0.41,0 0.715,-0.164 0.305,-0.17 0.475,-0.41 0.17,-0.24 0.181,-0.457 l 0.446,0.668 q -0.082,0.24 -0.247,0.51 -0.164,0.269 -0.421,0.503 -0.258,0.235 -0.621,0.387 -0.364,0.152 -0.844,0.152 -0.615,0 -1.102,-0.246 -0.486,-0.246 -0.767,-0.673 -0.282,-0.428 -0.282,-0.973 0,-0.504 0.188,-0.89 0.187,-0.387 0.557,-0.651 0.369,-0.27 0.914,-0.404 0.55,-0.141 1.26,-0.141 z m 5.738,2.76 q 0.328,0 0.586,-0.13 0.258,-0.128 0.41,-0.362 0.159,-0.235 0.17,-0.545 h 1.46 q -0.012,0.644 -0.364,1.154 -0.352,0.51 -0.938,0.808 -0.58,0.293 -1.3,0.293 -0.733,0 -1.278,-0.246 -0.545,-0.246 -0.908,-0.685 -0.357,-0.44 -0.539,-1.02 -0.176,-0.58 -0.176,-1.242 v -0.187 q 0,-0.663 0.176,-1.243 0.182,-0.58 0.54,-1.02 0.362,-0.439 0.907,-0.685 0.545,-0.246 1.272,-0.246 0.767,0 1.347,0.3 0.586,0.298 0.915,0.843 0.334,0.545 0.345,1.283 h -1.459 q -0.011,-0.34 -0.152,-0.61 -0.14,-0.269 -0.399,-0.433 -0.257,-0.164 -0.626,-0.164 -0.393,0 -0.657,0.164 -0.258,0.164 -0.404,0.451 -0.14,0.281 -0.2,0.633 -0.052,0.346 -0.052,0.727 v 0.187 q 0,0.387 0.053,0.738 0.058,0.352 0.199,0.633 0.146,0.276 0.404,0.44 0.264,0.164 0.668,0.164 z m 5.697,-5.239 v 6.34 h -1.553 v -6.34 z m -1.658,-1.658 q 0,-0.345 0.234,-0.574 0.24,-0.229 0.645,-0.229 0.404,0 0.638,0.229 0.24,0.229 0.24,0.574 0,0.34 -0.24,0.569 -0.234,0.228 -0.638,0.228 -0.404,0 -0.645,-0.228 -0.234,-0.229 -0.234,-0.569 z m 3.26,4.893 v -0.123 q 0,-0.698 0.199,-1.283 0.199,-0.592 0.58,-1.026 0.38,-0.433 0.931,-0.674 0.551,-0.246 1.254,-0.246 0.715,0 1.266,0.246 0.556,0.24 0.937,0.674 0.381,0.434 0.58,1.026 0.2,0.585 0.2,1.283 v 0.123 q 0,0.691 -0.2,1.283 -0.199,0.586 -0.58,1.025 -0.38,0.434 -0.931,0.674 -0.551,0.24 -1.26,0.24 -0.703,0 -1.26,-0.24 -0.557,-0.24 -0.937,-0.674 -0.381,-0.44 -0.58,-1.025 -0.2,-0.592 -0.2,-1.283 z m 1.546,-0.123 v 0.123 q 0,0.416 0.082,0.78 0.082,0.362 0.252,0.638 0.17,0.275 0.44,0.433 0.275,0.153 0.656,0.153 0.375,0 0.644,-0.153 0.27,-0.158 0.44,-0.433 0.176,-0.276 0.258,-0.639 0.082,-0.363 0.082,-0.78 v -0.122 q 0,-0.41 -0.082,-0.768 -0.082,-0.363 -0.258,-0.638 -0.17,-0.282 -0.445,-0.44 -0.27,-0.164 -0.65,-0.164 -0.376,0 -0.645,0.164 -0.27,0.158 -0.44,0.44 -0.17,0.275 -0.252,0.638 -0.082,0.358 -0.082,0.768 z m 0.65,-3.99 1.149,-1.782 h 1.71 l -1.599,1.782 z m 6.729,5.824 -0.012,1.072 q 0,0.627 -0.31,1.271 -0.311,0.645 -0.803,1.067 l -0.82,-0.451 q 0.158,-0.264 0.292,-0.533 0.141,-0.27 0.223,-0.586 0.088,-0.311 0.088,-0.698 v -1.142 z m 10.25,-1.412 h 1.612 q -0.064,0.855 -0.474,1.517 -0.41,0.656 -1.143,1.031 -0.732,0.375 -1.775,0.375 -0.803,0 -1.448,-0.28 -0.638,-0.288 -1.095,-0.815 -0.452,-0.533 -0.692,-1.278 -0.24,-0.75 -0.24,-1.681 v -0.65 q 0,-0.932 0.246,-1.682 0.246,-0.75 0.703,-1.278 0.463,-0.533 1.108,-0.82 0.65,-0.287 1.453,-0.287 1.043,0 1.763,0.387 0.721,0.38 1.12,1.049 0.398,0.667 0.48,1.535 h -1.611 q -0.047,-0.54 -0.235,-0.914 -0.181,-0.375 -0.55,-0.569 -0.364,-0.199 -0.967,-0.199 -0.469,0 -0.826,0.176 -0.352,0.176 -0.586,0.527 -0.235,0.346 -0.352,0.867 -0.117,0.516 -0.117,1.196 v 0.662 q 0,0.65 0.105,1.166 0.106,0.515 0.329,0.873 0.222,0.357 0.574,0.545 0.351,0.187 0.838,0.187 0.591,0 0.96,-0.187 0.376,-0.188 0.569,-0.551 0.2,-0.363 0.252,-0.902 z m 6.91,1.3 v -4.834 h 1.56 v 6.34 h -1.466 z m 0.2,-1.312 0.48,-0.012 q 0,0.639 -0.14,1.178 -0.14,0.539 -0.44,0.937 -0.293,0.393 -0.744,0.616 -0.451,0.216 -1.066,0.216 -0.47,0 -0.856,-0.128 -0.386,-0.135 -0.668,-0.416 -0.275,-0.288 -0.427,-0.733 -0.153,-0.451 -0.153,-1.084 v -4.096 h 1.547 v 4.108 q 0,0.316 0.07,0.527 0.077,0.211 0.205,0.346 0.135,0.129 0.311,0.187 0.182,0.053 0.387,0.053 0.562,0 0.884,-0.223 0.329,-0.228 0.47,-0.609 0.14,-0.387 0.14,-0.867 z m 4.765,-6.182 v 9 h -1.553 v -9 z m 4.877,2.66 v 1.114 h -3.633 v -1.114 z m -2.66,-1.558 h 1.552 v 6.07 q 0,0.281 0.076,0.434 0.077,0.152 0.229,0.205 0.152,0.053 0.363,0.053 0.153,0 0.281,-0.018 0.13,-0.018 0.217,-0.035 l 0.006,1.16 q -0.193,0.064 -0.44,0.105 -0.24,0.041 -0.544,0.041 -0.522,0 -0.914,-0.175 -0.393,-0.182 -0.61,-0.58 -0.216,-0.405 -0.216,-1.067 z m 7.864,6.392 v -4.834 h 1.559 v 6.34 h -1.465 z m 0.2,-1.312 0.48,-0.012 q 0,0.639 -0.14,1.178 -0.141,0.539 -0.44,0.937 -0.293,0.393 -0.744,0.616 -0.451,0.216 -1.067,0.216 -0.468,0 -0.855,-0.128 -0.387,-0.135 -0.668,-0.416 -0.275,-0.288 -0.428,-0.733 -0.152,-0.451 -0.152,-1.084 v -4.096 h 1.547 v 4.108 q 0,0.316 0.07,0.527 0.076,0.211 0.205,0.346 0.135,0.129 0.31,0.187 0.182,0.053 0.387,0.053 0.563,0 0.885,-0.223 0.328,-0.228 0.469,-0.609 0.14,-0.387 0.14,-0.867 z m 4.671,-2.227 v 5.045 h -1.547 v -6.34 h 1.465 z m 1.928,-1.336 -0.024,1.442 q -0.129,-0.024 -0.293,-0.035 -0.158,-0.012 -0.298,-0.012 -0.358,0 -0.627,0.1 -0.27,0.093 -0.452,0.275 -0.175,0.182 -0.27,0.445 -0.093,0.258 -0.105,0.586 l -0.334,-0.04 q 0,-0.604 0.124,-1.12 0.123,-0.516 0.357,-0.902 0.234,-0.387 0.586,-0.598 0.357,-0.217 0.82,-0.217 0.13,0 0.276,0.024 0.152,0.017 0.24,0.052 z m 4.532,5.034 v -2.924 q 0,-0.322 -0.111,-0.557 -0.112,-0.234 -0.34,-0.363 -0.229,-0.129 -0.58,-0.129 -0.31,0 -0.545,0.105 -0.229,0.106 -0.352,0.3 -0.123,0.187 -0.123,0.433 h -1.553 q 0,-0.393 0.188,-0.744 0.187,-0.358 0.533,-0.633 0.352,-0.281 0.838,-0.44 0.492,-0.158 1.102,-0.158 0.72,0 1.283,0.246 0.568,0.24 0.89,0.727 0.329,0.486 0.329,1.225 v 2.765 q 0,0.475 0.058,0.815 0.065,0.334 0.188,0.58 v 0.1 h -1.577 q -0.11,-0.241 -0.17,-0.61 -0.058,-0.375 -0.058,-0.738 z m 0.217,-2.514 0.011,0.92 h -0.978 q -0.363,0 -0.639,0.076 -0.275,0.07 -0.45,0.211 -0.177,0.135 -0.265,0.328 -0.087,0.188 -0.087,0.428 0,0.234 0.105,0.422 0.111,0.187 0.316,0.299 0.211,0.105 0.493,0.105 0.41,0 0.714,-0.164 0.305,-0.17 0.475,-0.41 0.17,-0.24 0.182,-0.457 l 0.445,0.668 q -0.082,0.24 -0.246,0.51 -0.164,0.269 -0.422,0.503 -0.258,0.235 -0.621,0.387 -0.363,0.152 -0.844,0.152 -0.615,0 -1.101,-0.246 -0.487,-0.246 -0.768,-0.673 -0.281,-0.428 -0.281,-0.973 0,-0.504 0.187,-0.89 0.188,-0.387 0.557,-0.651 0.37,-0.27 0.914,-0.404 0.55,-0.141 1.26,-0.141 z m 4.595,2.467 -0.012,1.072 q 0,0.627 -0.31,1.271 -0.31,0.645 -0.803,1.067 l -0.82,-0.451 q 0.158,-0.264 0.293,-0.533 0.14,-0.27 0.222,-0.586 0.088,-0.311 0.088,-0.698 v -1.142 z M 209,519 a 0.86,0.86 0 1 0 0,1.71 0.85,0.85 0 0 0 0.85,-0.85 A 0.86,0.86 0 0 0 209,519 Z m -13.63,69.65 8.95,8.94 a 26.55,26.55 0 0 0 13.1,7.19 l -19.09,-19.09 z m 4.92,-52.21 2.79,6.77 -3.49,7.06 a 44,44 0 0 1 3.48,10 c 0.82,4.56 0.16,11.63 0.16,11.63 l 13,-6.56 a 14.28,14.28 0 0 0 2.06,2.62 l 2.94,2.93 10.12,-10.11 -0.67,-0.63 c -4.07,-3.81 -5.81,-7.41 -5.81,-12 v -4.93 l 2.78,-6.74 a 1.33,1.33 0 1 0 -1.79,-1.24 1.34,1.34 0 0 0 0.32,0.86 3.76,3.76 0 0 1 -2.53,2.36 6.4,6.4 0 0 1 3.74,-8.25 6.35,6.35 0 0 1 0.7,-8.63 7.8,7.8 0 0 0 -5.59,1 5.73,5.73 0 0 1 -2.28,-4.58 5.58,5.58 0 0 1 0.13,-1.23 5.28,5.28 0 0 1 -6.75,-2.48 4.53,4.53 0 0 1 -7.63,0 c 0.34,3.75 -0.79,8.16 -4,10.5 l 0.87,1.16 a 13.4,13.4 0 0 0 1.5,-1.31 0.85,0.85 0 0 1 0.67,-0.32 0.76,0.76 0 0 1 0.74,0.76 1,1 0 0 1 -0.14,0.48 3.28,3.28 0 0 0 -0.35,1.47 3.4,3.4 0 0 0 0.32,1.43 l 1.31,-0.62 c -0.61,-1.31 0.43,-2.53 2.09,-3.76 1.18,-0.88 2.43,-1.7 3.34,-1.71 a 1.85,1.85 0 0 1 1.85,1.85 c 0,1.14 -1.13,2.05 -2,2.6 -3.27,2.06 -6.56,3.56 -8.08,7.18 a 13.23,13.23 0 0 0 -0.91,4 4.08,4.08 0 0 1 -1.48,-1.87 1.34,1.34 0 0 0 0.32,-0.86 1.33,1.33 0 1 0 -1.79,1.24 z m 9.36,30.42 -4.65,2.32 a 46.06,46.06 0 0 0 -0.37,-9.21 42.6,42.6 0 0 0 -2.9,-8.9 h 7.9 z m 1.61,-0.81 v -16.59 h -9.47 l 2.94,-6 h 8.74 v 4.62 c 0,1.38 0,4.26 0.22,7.32 a 23.26,23.26 0 0 0 1.83,8.48 z m 17.83,-5.25 -7.82,7.79 -1.8,-1.79 c -3.05,-3 -3.87,-6.79 -4.18,-11.47 -0.14,-2.17 -0.2,-4.53 -0.2,-7.22 v -4.62 h 8.21 v 4.62 c 0,4.89 1.79,8.74 5.79,12.69 z m -23.62,-26.14 c 1.48,-3.78 6.26,-5.66 8.46,-7.22 a 4.26,4.26 0 0 0 1.81,-3.26 3.39,3.39 0 0 0 -3.36,-3.36 c -1.73,0 -4.24,1.95 -5.43,3.13 a 2.31,2.31 0 0 0 -1.26,-1 15,15 0 0 0 1.77,-5.6 6,6 0 0 0 6,-0.79 6.77,6.77 0 0 0 4.86,2.05 h 0.43 a 7.23,7.23 0 0 0 2.48,4.81 10.81,10.81 0 0 0 -2.15,2.39 10.89,10.89 0 0 1 -3.91,3.66 5.61,5.61 0 0 1 -1.77,0.61 7.83,7.83 0 0 1 -0.35,4.43 l 1.39,0.54 a 9.16,9.16 0 0 0 0.63,-3.36 v -0.41 a 11.79,11.79 0 0 0 5.35,-4.56 8,8 0 0 1 4.74,-3.55 7.9,7.9 0 0 0 0.12,6.43 7.88,7.88 0 0 0 -3.17,8.93 3.72,3.72 0 0 1 -2.89,-2.34 1.29,1.29 0 0 0 0.43,-1 1.33,1.33 0 1 0 -2.23,1 3.71,3.71 0 0 1 -6.92,0 1.33,1.33 0 1 0 -2.23,-1 1.29,1.29 0 0 0 0.43,1 3.7,3.7 0 0 1 -3.46,2.38 4.07,4.07 0 0 1 -0.52,0 11.56,11.56 0 0 1 0.75,-3.91 z m -0.2,5.39 a 5.21,5.21 0 0 0 4.36,-2.36 5.21,5.21 0 0 0 8.72,0 5.21,5.21 0 0 0 6.41,1.94 l -0.93,2.25 h -19.68 l -0.93,-2.25 a 5.18,5.18 0 0 0 2.05,0.42 z m -4.27,43.02 22.38,22.37 a 28,28 0 0 0 5.39,-0.52 l -24.81,-24.81 z m 5.54,-5.59 24.81,24.81 a 27.19,27.19 0 0 0 0.51,-5.39 l -22.37,-22.37 z m 5.58,-5.58 19.09,19.1 a 26.62,26.62 0 0 0 -7.19,-13.1 l -9,-8.95 z m -9.79,-42.18 c 1.63,-2.4 1.9,-2.45 1.9,-2.45 a 2.28,2.28 0 0 0 -2.5,0.94 c -1.61,2.39 -1.88,2.44 -1.88,2.44 a 2.27,2.27 0 0 0 2.48,-0.93 z m 16.09,19.74 h -1.9 v 1.61 h 1.9 v 1.9 h 0.55 v 2.46 h 0.5 v -2.46 h 0.56 v -1.9 h 1.9 v -1.61 h -1.9 v -1.89 h -1.61 z m 61.32,33.17 h 10.85 v -2.44 h -8.22 V 564 h -2.63 z m 24.93,-8.99 h -8.02 v -7.19 h 8.98 V 564 h -11.6 v 18.63 H 306 v -2.44 h -9.35 v -4.14 h 8.02 z m 46.2,-9.64 h 2.65 v 18.63 h -2.65 z m -40.37,-0.24 v 18.87 h 2.52 V 569.4 l 11.85,13.48 h 0.83 V 564 h -2.52 v 13.23 l -11.85,-13.47 z m 91.85,0 -7.81,18.87 h 2.71 l 1.53,-3.79 h 8 l 1.53,3.79 H 411 l -7.81,-18.87 z m -2.58,12.64 3,-7.31 3,7.31 z m -35.32,-12.64 -7.8,18.87 h 2.7 l 1.54,-3.79 h 7.95 l 1.54,3.79 h 2.7 l -7.8,-18.87 z m -2.57,12.64 3,-7.31 3,7.31 z M 247.89,564 h -2.83 l 7.8,18.88 h 0.83 l 7.8,-18.88 h -2.83 l -5.39,13.39 z m 20.11,-0.24 -7.8,18.87 h 2.7 l 1.54,-3.79 h 7.95 l 1.54,3.79 h 2.7 l -7.8,-18.87 z m -2.57,12.64 3,-7.31 3,7.31 z m 73.57,3.97 a 7.06,7.06 0 0 1 -0.13,-14.11 6.45,6.45 0 0 1 5.58,2.89 l 2,-1.48 a 8.85,8.85 0 0 0 -7.61,-3.87 9.52,9.52 0 1 0 8.16,14.93 l -2.09,-1.47 a 6.9,6.9 0 0 1 -5.91,3.11 z m 37.21,-16.61 v 18.87 h 2.52 V 569.4 l 11.86,13.48 h 0.82 V 564 h -2.52 v 13.23 l -11.85,-13.47 z m -48.98,-14 a 6.07,6.07 0 0 0 3.89,-6 c 0,-4.24 -2.91,-6.77 -7.78,-6.77 h -4.93 v 18.63 H 321 v -5.12 h 2.3 a 11.12,11.12 0 0 0 1.23,-0.06 l 3.49,5.21 h 3.19 z m -4,-1.67 H 321 v -8.63 h 2.2 c 3.48,0 5.18,1.42 5.18,4.33 0,2.91 -1.66,4.3 -5.14,4.3 z m 83.4,-8.63 v 16.19 h 2.63 v -16.19 h 5.67 v -2.44 h -13.79 v 2.44 z m -50.89,-2.44 h -2.63 v 18.63 h 10.85 v -2.44 h -8.22 z m -51.17,12.05 h 8.01 v -2.41 h -8.01 v -7.19 h 8.98 v -2.45 h -11.61 v 18.63 h 11.97 v -2.44 h -9.34 z m 62.83,-12.05 h 2.65 v 18.63 h -2.65 z m 14.2,2.45 h 5.47 v -2.45 h -13.59 v 2.45 h 5.5 v 16.18 h 2.62 z m -105.9,7.19 h -8.02 v -7.2 h 8.98 v -2.44 h -11.6 v 18.63 h 11.97 v -2.44 h -9.35 v -4.14 h 8.02 z m 21.04,9.24 v -18.88 h -2.53 v 13.23 l -11.85,-13.47 h -0.83 v 18.87 h 2.52 v -13.23 l 11.86,13.48 z m 91.87,-0.25 1.53,-3.79 h 8 l 1.53,3.79 h 2.7 l -7.8,-18.87 h -0.83 l -7.8,18.87 z m 5.51,-13.54 3,7.3 h -6 z m -52.77,-5.33 -7.8,18.87 h 2.7 l 1.54,-3.79 h 7.95 l 1.54,3.79 H 350 l -7.8,-18.87 z m -2.57,12.64 3,-7.31 3,7.31 z M 253,555.86 a 10.15,10.15 0 0 0 7.46,-2.73 v -6.47 h -7.88 v 2.44 H 258 v 2.82 a 7.71,7.71 0 0 1 -4.92,1.47 7.06,7.06 0 0 1 -0.32,-14.11 6.42,6.42 0 0 1 5.49,2.54 l 1.88,-1.75 a 8.92,8.92 0 0 0 -7.31,-3.26 9.53,9.53 0 1 0 0.26,19.05 z"
     transform="translate(-195.37,-514.29)" />
</svg>
