<svg xmlns="http://www.w3.org/2000/svg" xmlns:xlink="http://www.w3.org/1999/xlink" xml:space="preserve" id="svg14" version="1.1" viewBox="0 0 1064.753 281.318"><defs id="defs4">
<path id="g" d="M465.676 175.262h674.083v79.147H465.676Z"/>
<path id="f" d="M479.568 34.136h622.941V177.24H479.568Z"/>
<g id="d"><g id="b"><path id="a" d="M0 0v1h.5Z" transform="rotate(18 3.157 -.5)"/><use xlink:href="#a" id="use1" transform="scale(-1 1)"/></g><g id="c"><use xlink:href="#b" id="use2" transform="rotate(72)"/><use xlink:href="#b" id="use3" transform="rotate(144)"/></g><use xlink:href="#c" id="use4" transform="scale(-1 1)"/></g></defs><g id="g1" transform="translate(1074.68 -.026)">
<path id="path2" d="M-1074.68.026h421.972v281.319h-421.971V.026" style="fill:#039;fill-opacity:1;fill-rule:nonzero;stroke:none;stroke-width:.14879"/>
<path id="path14" d="m-818.095 45.973-3.4 10.64-11.126-.023 9.015 6.498-3.376 10.488 8.899-6.497 8.877 6.497-3.378-10.488 9.027-6.498h-11.138l-3.4-10.617m24.703 61.181 8.887-6.485 8.887 6.485-3.386-10.488 9.025-6.474h-11.115l-3.411-10.63-3.41 10.64-11.116-.01 9.026 6.474-3.387 10.489m35.632 28.972h-11.127l-3.411-10.628-3.4 10.64-11.127-.012 9.027 6.485-3.376 10.49 8.876-6.497 8.888 6.497-3.377-10.49 9.027-6.485m-23.334 46.203-3.411-10.63-3.41 10.64-11.116-.01 9.026 6.486-3.387 10.489 8.887-6.498 8.887 6.498-3.386-10.489 9.025-6.485h-11.115m-33.73 33.717-3.399-10.618-3.411 10.63-11.115-.012 9.015 6.486-3.376 10.488 8.887-6.486 8.888 6.486-3.388-10.488 9.028-6.486h-11.128m-45.936 12.217-3.404-10.628-3.4 10.64-11.127-.012 9.02 6.486-3.376 10.49 8.889-6.486 8.881 6.485-3.382-10.49 9.027-6.485h-11.128m-45.935-12.217-3.405-10.618-3.4 10.63-11.128-.012 9.022 6.486-3.376 10.488 8.888-6.486 8.88 6.486-3.375-10.488 9.021-6.486h-11.127m-33.718-33.718-3.405-10.63-3.405 10.64-11.121-.01 9.02 6.486-3.381 10.489 8.887-6.498 8.887 6.498-3.381-10.489 9.02-6.485h-11.12m-15.752-35.587 8.883 6.486-3.378-10.49 9.023-6.485h-11.123l-3.405-10.628-3.406 10.651-11.126-.023 9.026 6.485-3.381 10.49 8.887-6.486m12.346-67.053-3.405 10.64-11.121-.013 9.02 6.488-3.381 10.488 8.887-6.486 8.887 6.486-3.381-10.488 9.02-6.488h-11.12l-3.406-10.627m24.765-6.127 8.889-6.485 8.883 6.485-3.378-10.488 9.021-6.486h-11.127l-3.405-10.629-3.406 10.64-11.12-.01 9.02 6.485-3.377 10.489m45.994-12.357 8.887-6.486 8.889 6.486-3.382-10.49 9.027-6.486h-11.128l-3.406-10.616-3.404 10.628-11.12-.012 9.019 6.486-3.382 10.49" style="fill:#fc0;fill-opacity:1;fill-rule:nonzero;stroke:none;stroke-width:.148516"/>
<path id="text14" style="fill:var(--md-typeset-color)"  d="M471.254 236.513v-48.676h32.838v5.744h-26.397v15.075h22.844v5.744h-22.844v22.113zm38.217-17.63q0-9.796 5.445-14.51 4.549-3.919 11.09-3.919 7.271 0 11.887 4.782 4.615 4.748 4.615 13.148 0 6.807-2.059 10.725-2.025 3.884-5.943 6.043-3.885 2.158-8.5 2.158-7.404 0-11.986-4.748-4.55-4.748-4.55-13.68zm6.142 0q0 6.773 2.955 10.16 2.955 3.353 7.438 3.353 4.45 0 7.404-3.387 2.955-3.387 2.955-10.326 0-6.541-2.988-9.895-2.955-3.386-7.371-3.386-4.483 0-7.438 3.353-2.955 3.354-2.955 10.127zm33.9 17.63v-35.262h5.38v5.014q3.884-5.81 11.222-5.81 3.188 0 5.844 1.162 2.69 1.128 4.018 2.988 1.328 1.86 1.859 4.416.332 1.66.332 5.81v21.682h-5.977v-21.45q0-3.652-.697-5.445-.697-1.826-2.49-2.888-1.76-1.096-4.15-1.096-3.819 0-6.608 2.424-2.756 2.424-2.756 9.197v19.258zm35.428-10.525 5.91-.93q.499 3.553 2.756 5.445 2.291 1.893 6.375 1.893 4.118 0 6.11-1.66 1.992-1.694 1.992-3.951 0-2.026-1.76-3.188-1.228-.797-6.11-2.025-6.573-1.66-9.13-2.856-2.523-1.228-3.852-3.353-1.294-2.159-1.294-4.748 0-2.358 1.062-4.35 1.096-2.025 2.955-3.354 1.395-1.029 3.785-1.726 2.424-.73 5.18-.73 4.15 0 7.271 1.195 3.155 1.195 4.649 3.254 1.494 2.025 2.058 5.445l-5.843.797q-.399-2.723-2.325-4.25-1.892-1.528-5.378-1.528-4.118 0-5.877 1.362-1.76 1.361-1.76 3.187 0 1.162.73 2.092.73.963 2.291 1.594.897.332 5.28 1.527 6.341 1.694 8.832 2.79 2.523 1.062 3.95 3.12 1.429 2.059 1.429 5.114 0 2.988-1.76 5.644-1.727 2.623-5.014 4.084-3.287 1.428-7.437 1.428-6.873 0-10.493-2.856-3.586-2.855-4.582-8.466zm53.856-5.114 6.076-.53q.432 3.651 1.992 6.009 1.594 2.324 4.914 3.785 3.32 1.428 7.471 1.428 3.686 0 6.508-1.096t4.183-2.988q1.395-1.926 1.395-4.184 0-2.29-1.328-3.984-1.328-1.727-4.383-2.889-1.959-.764-8.666-2.357-6.707-1.627-9.396-3.055-3.487-1.826-5.213-4.516-1.694-2.722-1.694-6.076 0-3.685 2.092-6.873 2.092-3.22 6.11-4.88 4.017-1.66 8.931-1.66 5.412 0 9.53 1.759 4.15 1.726 6.374 5.113 2.225 3.387 2.391 7.67l-6.176.465q-.498-4.615-3.387-6.973-2.855-2.357-8.466-2.357-5.844 0-8.534 2.158-2.656 2.125-2.656 5.147 0 2.623 1.893 4.316 1.86 1.693 9.695 3.486 7.87 1.76 10.791 3.088 4.25 1.96 6.276 4.98 2.025 2.989 2.025 6.907 0 3.885-2.225 7.338-2.224 3.42-6.408 5.346-4.15 1.892-9.363 1.892-6.608 0-11.09-1.926-4.45-1.925-7.006-5.777-2.523-3.885-2.656-8.766zm44.558-1.992q0-9.795 5.446-14.51 4.549-3.918 11.09-3.918 7.271 0 11.886 4.782 4.616 4.748 4.616 13.148 0 6.807-2.059 10.725-2.025 3.884-5.943 6.043-3.885 2.158-8.5 2.158-7.405 0-11.987-4.748-4.549-4.748-4.549-13.68zm6.143 0q0 6.774 2.955 10.16 2.955 3.354 7.438 3.354 4.449 0 7.404-3.387t2.955-10.326q0-6.541-2.988-9.895-2.955-3.386-7.371-3.386-4.483 0-7.438 3.353-2.955 3.354-2.955 10.127zm56.91 4.715 5.877.764q-.963 6.076-4.947 9.529-3.951 3.42-9.729 3.42-7.238 0-11.654-4.715-4.383-4.748-4.383-13.58 0-5.711 1.893-9.994 1.892-4.283 5.744-6.408 3.885-2.159 8.434-2.159 5.744 0 9.396 2.922 3.652 2.889 4.682 8.235l-5.81.896q-.83-3.553-2.956-5.346-2.092-1.793-5.08-1.793-4.516 0-7.338 3.254-2.822 3.221-2.822 10.227 0 7.105 2.723 10.326 2.722 3.22 7.105 3.22 3.52 0 5.877-2.157 2.357-2.159 2.988-6.641zm11.024-28.887v-6.873h5.976v6.873zm0 41.803v-35.262h5.976v35.262zm38.084-4.35q-3.32 2.823-6.409 3.985-3.054 1.162-6.574 1.162-5.81 0-8.931-2.822-3.122-2.856-3.122-7.272 0-2.59 1.163-4.715 1.195-2.158 3.087-3.453 1.926-1.295 4.317-1.959 1.76-.465 5.312-.896 7.239-.864 10.659-2.059.033-1.228.033-1.56 0-3.653-1.694-5.147-2.29-2.025-6.806-2.025-4.217 0-6.242 1.494-1.993 1.46-2.955 5.213l-5.844-.797q.797-3.752 2.623-6.043 1.826-2.324 5.28-3.553 3.452-1.262 8.001-1.262 4.516 0 7.338 1.063 2.822 1.062 4.15 2.69 1.328 1.593 1.86 4.05.299 1.527.299 5.512v7.969q0 8.334.365 10.558.398 2.192 1.527 4.217h-6.242q-.93-1.86-1.195-4.35zm-.498-13.347q-3.254 1.328-9.762 2.258-3.686.53-5.213 1.195-1.527.664-2.357 1.959-.83 1.262-.83 2.822 0 2.39 1.792 3.985 1.827 1.593 5.313 1.593 3.453 0 6.143-1.494 2.689-1.527 3.95-4.15.964-2.026.964-5.977zm15.173 17.697v-48.676h5.977v48.676zm35.03 0v-48.676h35.195v5.744h-28.754v14.909h26.928v5.71h-26.928v16.569h29.883v5.744zm67.568 0v-5.18q-4.117 5.977-11.19 5.977-3.12 0-5.843-1.195-2.69-1.196-4.018-2.989-1.295-1.826-1.826-4.449-.365-1.76-.365-5.578v-21.848h5.976v19.557q0 4.682.366 6.309.564 2.357 2.39 3.718 1.826 1.328 4.516 1.328t5.047-1.36q2.357-1.395 3.32-3.753.996-2.39.996-6.906V201.25h5.977v35.262zm14.643 0v-35.262h5.379v5.346q2.058-3.752 3.785-4.947 1.76-1.196 3.851-1.196 3.022 0 6.143 1.926l-2.059 5.545q-2.191-1.295-4.383-1.295-1.959 0-3.52 1.196-1.56 1.162-2.224 3.253-.996 3.188-.996 6.973v18.461zm20.486-17.63q0-9.796 5.445-14.51 4.55-3.919 11.09-3.919 7.272 0 11.887 4.782 4.615 4.748 4.615 13.148 0 6.807-2.059 10.725-2.025 3.884-5.943 6.043-3.885 2.158-8.5 2.158-7.404 0-11.986-4.748-4.549-4.748-4.549-13.68zm6.143 0q0 6.773 2.955 10.16 2.955 3.353 7.437 3.353 4.45 0 7.404-3.387 2.955-3.387 2.955-10.326 0-6.541-2.988-9.895-2.955-3.386-7.37-3.386-4.483 0-7.438 3.353-2.955 3.354-2.955 10.127zm33.9 31.144V201.25h5.445v4.582q1.926-2.69 4.35-4.017 2.424-1.362 5.877-1.362 4.515 0 7.969 2.325 3.453 2.324 5.212 6.574 1.76 4.217 1.76 9.264 0 5.412-1.959 9.761-1.926 4.317-5.644 6.64-3.686 2.292-7.77 2.292-2.988 0-5.379-1.262-2.357-1.262-3.885-3.187v17.166zm5.412-30.946q0 6.807 2.756 10.06 2.756 3.255 6.674 3.255 3.984 0 6.806-3.354 2.856-3.386 2.856-10.459 0-6.74-2.79-10.093-2.755-3.354-6.607-3.354-3.818 0-6.773 3.586-2.922 3.553-2.922 10.36zm56.545 6.077 6.176.763q-1.461 5.412-5.412 8.4-3.952 2.989-10.094 2.989-7.736 0-12.285-4.748-4.516-4.781-4.516-13.381 0-8.898 4.582-13.813 4.582-4.914 11.887-4.914 7.072 0 11.555 4.815 4.482 4.814 4.482 13.547 0 .531-.033 1.593h-26.297q.332 5.811 3.287 8.899 2.955 3.088 7.371 3.088 3.287 0 5.612-1.727 2.324-1.726 3.685-5.511zm-19.623-9.663h19.69q-.4-4.449-2.258-6.673-2.856-3.454-7.405-3.454-4.117 0-6.94 2.756-2.788 2.756-3.087 7.371zm56.412 21.018v-5.18q-4.117 5.977-11.19 5.977-3.12 0-5.843-1.195-2.69-1.196-4.018-2.989-1.295-1.826-1.826-4.449-.365-1.76-.365-5.578v-21.848h5.976v19.557q0 4.682.366 6.309.564 2.357 2.39 3.718 1.826 1.328 4.516 1.328t5.047-1.36q2.357-1.395 3.32-3.753.996-2.39.996-6.906V201.25h5.977v35.262zm-617.211 65.602v-34.36h4.547v30.305h16.921v4.055zm26.367-22.195-1.078-6.422v-5.742h4.804v5.742l-1.125 6.422zm23.25 22.195v-34.36h23.18v4.055H523.66v10.64h16.125v4.056H523.66v15.609zm27.539-11.04 4.289-.374q.305 2.578 1.406 4.242 1.125 1.64 3.469 2.672 2.344 1.008 5.273 1.008 2.602 0 4.594-.774 1.992-.773 2.953-2.109.985-1.36.985-2.953 0-1.617-.938-2.813-.937-1.218-3.094-2.039-1.382-.539-6.117-1.664-4.734-1.148-6.633-2.156-2.46-1.29-3.68-3.187-1.195-1.922-1.195-4.29 0-2.601 1.477-4.851 1.477-2.274 4.312-3.445 2.836-1.172 6.305-1.172 3.82 0 6.727 1.242 2.93 1.219 4.5 3.61 1.57 2.39 1.687 5.413l-4.36.328q-.35-3.257-2.39-4.921-2.015-1.664-5.976-1.664-4.125 0-6.024 1.523-1.875 1.5-1.875 3.633 0 1.851 1.336 3.047 1.313 1.195 6.844 2.46 5.555 1.243 7.617 2.18 3 1.383 4.43 3.516 1.43 2.11 1.43 4.875 0 2.742-1.57 5.18-1.571 2.414-4.524 3.773-2.93 1.336-6.61 1.336-4.664 0-7.828-1.36-3.14-1.359-4.945-4.078-1.781-2.742-1.875-6.187zm33.656 11.04v-34.36h24.844v4.055h-20.297v10.524h19.008v4.031h-19.008v11.695h21.094v4.055zm44.742-29.508v-4.851h4.22v4.851zm0 29.508v-24.89h4.22v24.89zm10.64 0v-24.89h3.798v3.538q2.742-4.101 7.922-4.101 2.25 0 4.125.82 1.898.797 2.836 2.11.937 1.312 1.312 3.117.235 1.172.235 4.101v15.305h-4.22v-15.14q0-2.579-.491-3.844-.493-1.29-1.758-2.04-1.242-.773-2.93-.773-2.695 0-4.664 1.711-1.945 1.711-1.945 6.492v13.594zm33.61 0-9.468-24.89h4.453l5.343 14.906q.868 2.414 1.594 5.015.563-1.968 1.57-4.734l5.532-15.188h4.336l-9.422 24.891zm17.11-29.508v-4.851h4.218v4.851zm0 29.508v-24.89h4.218v24.89zm10.593 0v-24.89h3.797v3.773q1.453-2.649 2.672-3.492 1.242-.844 2.719-.844 2.133 0 4.336 1.36l-1.453 3.913q-1.547-.914-3.094-.914-1.383 0-2.484.844-1.102.82-1.57 2.297-.704 2.25-.704 4.922v13.031zm25.243-3.773.609 3.726q-1.781.375-3.187.375-2.297 0-3.563-.726-1.266-.727-1.781-1.899-.516-1.195-.516-4.992v-14.32h-3.094v-3.282h3.094v-6.164l4.195-2.53v8.694h4.243v3.282h-4.243v14.554q0 1.805.211 2.32.235.516.727.82.516.306 1.453.306.703 0 1.852-.164zm21.164-4.243 4.36.54q-1.032 3.82-3.821 5.93-2.79 2.109-7.125 2.109-5.461 0-8.672-3.352-3.188-3.375-3.188-9.445 0-6.282 3.235-9.75 3.234-3.47 8.39-3.47 4.993 0 8.157 3.4 3.164 3.398 3.164 9.562 0 .375-.024 1.125h-18.562q.234 4.101 2.32 6.281 2.086 2.18 5.203 2.18 2.32 0 3.961-1.219 1.64-1.219 2.602-3.89zm-13.852-6.82h13.899q-.282-3.14-1.594-4.71-2.016-2.438-5.227-2.438-2.906 0-4.898 1.945-1.969 1.945-2.18 5.203zm23.531-14.672v-4.851h4.22v4.851zm0 29.508v-24.89h4.22v24.89zm7.829 0 9.093-12.937-8.414-11.954h5.274l3.82 5.836q1.078 1.664 1.734 2.79 1.032-1.547 1.899-2.743l4.195-5.883h5.04l-8.602 11.72 9.257 13.171h-5.18l-5.109-7.734-1.36-2.086-6.538 9.82zm57.187-8.016 4.36.54q-1.032 3.82-3.82 5.93-2.79 2.109-7.126 2.109-5.46 0-8.672-3.352-3.187-3.375-3.187-9.445 0-6.282 3.234-9.75 3.234-3.47 8.39-3.47 4.993 0 8.157 3.4 3.164 3.398 3.164 9.562 0 .375-.023 1.125h-18.563q.234 4.101 2.32 6.281 2.086 2.18 5.204 2.18 2.32 0 3.96-1.219 1.641-1.219 2.602-3.89zm-13.852-6.82h13.899q-.281-3.14-1.594-4.71-2.015-2.438-5.226-2.438-2.907 0-4.899 1.945-1.969 1.945-2.18 5.203zm23.508 14.836v-24.89h3.797v3.538q2.742-4.101 7.922-4.101 2.25 0 4.125.82 1.898.797 2.836 2.11.937 1.312 1.312 3.117.235 1.172.235 4.101v15.305h-4.219v-15.14q0-2.579-.492-3.844-.492-1.29-1.758-2.04-1.242-.773-2.93-.773-2.695 0-4.664 1.711-1.945 1.711-1.945 6.492v13.594zm57.07-8.016 4.36.54q-1.031 3.82-3.82 5.93-2.79 2.109-7.125 2.109-5.461 0-8.672-3.352-3.188-3.375-3.188-9.445 0-6.282 3.235-9.75 3.234-3.47 8.39-3.47 4.992 0 8.157 3.4 3.164 3.398 3.164 9.562 0 .375-.024 1.125h-18.562q.234 4.101 2.32 6.281 2.086 2.18 5.203 2.18 2.32 0 3.961-1.219 1.64-1.219 2.602-3.89zm-13.851-6.82h13.898q-.28-3.14-1.593-4.71-2.016-2.438-5.227-2.438-2.906 0-4.898 1.945-1.97 1.945-2.18 5.203zm23.414 14.836v-34.36h4.219v34.36zm33.305-3.773.61 3.726q-1.782.375-3.188.375-2.297 0-3.563-.726-1.265-.727-1.781-1.899-.516-1.195-.516-4.992v-14.32h-3.093v-3.282h3.093v-6.164l4.196-2.53v8.694h4.242v3.282h-4.242v14.554q0 1.805.21 2.32.235.516.727.82.516.306 1.453.306.703 0 1.852-.164zm21.164-4.243 4.36.54q-1.032 3.82-3.821 5.93-2.79 2.109-7.125 2.109-5.461 0-8.672-3.352-3.187-3.375-3.187-9.445 0-6.282 3.234-9.75 3.234-3.47 8.39-3.47 4.993 0 8.157 3.4 3.164 3.398 3.164 9.562 0 .375-.024 1.125h-18.562q.234 4.101 2.32 6.281 2.086 2.18 5.203 2.18 2.32 0 3.961-1.219 1.64-1.219 2.602-3.89zm-13.852-6.82h13.899q-.282-3.14-1.594-4.71-2.016-2.438-5.227-2.438-2.906 0-4.898 1.945-1.969 1.945-2.18 5.203zm39.82 14.836v-3.656q-2.906 4.219-7.898 4.219-2.203 0-4.125-.844-1.898-.844-2.836-2.11-.914-1.289-1.289-3.14-.258-1.242-.258-3.938v-15.422h4.22v13.805q0 3.305.257 4.453.398 1.664 1.687 2.625 1.29.938 3.188.938 1.898 0 3.562-.961 1.664-.985 2.344-2.649.703-1.687.703-4.875v-13.336h4.219v24.891zm24.727 0v-21.61h-3.726v-3.28h3.726v-2.65q0-2.507.445-3.726.61-1.64 2.133-2.648 1.547-1.031 4.313-1.031 1.781 0 3.937.422l-.633 3.68q-1.312-.235-2.484-.235-1.922 0-2.719.82-.797.82-.797 3.07v2.297h4.852v3.282h-4.852v21.609zm28.64 0v-3.656q-2.906 4.219-7.898 4.219-2.203 0-4.125-.844-1.898-.844-2.836-2.11-.914-1.289-1.289-3.14-.258-1.242-.258-3.938v-15.422h4.22v13.805q0 3.305.257 4.453.398 1.664 1.688 2.625 1.289.938 3.187.938t3.563-.961q1.664-.985 2.343-2.649.703-1.687.703-4.875v-13.336h4.22v24.891zm19.594-3.773.61 3.726q-1.781.375-3.188.375-2.297 0-3.562-.726-1.266-.727-1.781-1.899-.516-1.195-.516-4.992v-14.32h-3.094v-3.282h3.094v-6.164l4.195-2.53v8.694h4.242v3.282h-4.242v14.554q0 1.805.211 2.32.235.516.727.82.515.306 1.453.306.703 0 1.851-.164zm20.438 3.773v-3.656q-2.906 4.219-7.898 4.219-2.204 0-4.125-.844-1.899-.844-2.836-2.11-.914-1.289-1.29-3.14-.257-1.242-.257-3.938v-15.422h4.218v13.805q0 3.305.258 4.453.399 1.664 1.688 2.625 1.289.938 3.187.938 1.899 0 3.563-.961 1.664-.985 2.344-2.649.703-1.687.703-4.875v-13.336h4.218v24.891zm10.336 0v-24.89h3.797v3.773q1.453-2.649 2.672-3.492 1.242-.844 2.718-.844 2.133 0 4.336 1.36l-1.453 3.913q-1.547-.914-3.094-.914-1.382 0-2.484.844-1.101.82-1.57 2.297-.703 2.25-.703 4.922v13.031zm-607.7-198.763h9.827v26.364q0 6.275.366 8.134.63 2.989 2.988 4.815 2.39 1.793 6.508 1.793 4.183 0 6.308-1.694 2.125-1.726 2.557-4.216.432-2.49.432-8.268v-26.928h9.828v25.567q0 8.765-.797 12.384-.797 3.62-2.955 6.11-2.125 2.49-5.711 3.984-3.586 1.461-9.363 1.461-6.973 0-10.592-1.594-3.586-1.627-5.678-4.183-2.092-2.59-2.756-5.412-.963-4.184-.963-12.352zm49.273 48.676v-48.676h9.562l19.922 32.506v-32.506h9.13v48.676h-9.86l-19.623-31.742v31.742zm48.709 0v-48.676h9.828v48.676zm17.199-24.039q0-7.438 2.224-12.484 1.66-3.72 4.516-6.674 2.889-2.955 6.309-4.383 4.549-1.926 10.492-1.926 10.758 0 17.2 6.674 6.474 6.674 6.474 18.56 0 11.788-6.409 18.461-6.408 6.641-17.132 6.641-10.858 0-17.266-6.607-6.408-6.641-6.408-18.262zm10.127-.332q0 8.267 3.818 12.55 3.819 4.25 9.695 4.25 5.877 0 9.63-4.216 3.785-4.25 3.785-12.717 0-8.367-3.686-12.484-3.652-4.117-9.729-4.117-6.076 0-9.794 4.183-3.72 4.15-3.72 12.55zm7.437-27.094 4.582-9.928h10.46l-9.132 9.928zm56.213 51.465v-48.676h36.092v8.235h-26.264v10.79h24.438v8.202h-24.438v13.248h27.194v8.201zm45.29-48.676h9.827v26.364q0 6.275.366 8.134.63 2.989 2.988 4.815 2.39 1.793 6.508 1.793 4.183 0 6.308-1.694 2.125-1.726 2.557-4.216.432-2.49.432-8.268v-26.928h9.828v25.567q0 8.765-.797 12.384-.797 3.62-2.955 6.11-2.125 2.49-5.711 3.984-3.586 1.461-9.363 1.461-6.973 0-10.592-1.594-3.586-1.627-5.678-4.183-2.092-2.59-2.756-5.412-.963-4.184-.963-12.352zm49.206 48.676v-48.676h20.686q7.803 0 11.322 1.328 3.553 1.295 5.678 4.649 2.125 3.353 2.125 7.67 0 5.478-3.22 9.064-3.222 3.553-9.63 4.483 3.188 1.859 5.246 4.084 2.092 2.224 5.612 7.902l5.943 9.496h-11.754l-7.105-10.592q-3.786-5.678-5.18-7.138-1.395-1.495-2.955-2.026-1.56-.564-4.947-.564h-1.993v20.32zm9.828-28.09h7.272q7.072 0 8.832-.597 1.76-.598 2.756-2.06.996-1.46.996-3.651 0-2.457-1.328-3.952-1.295-1.527-3.686-1.925-1.195-.166-7.172-.166h-7.67zm37.254 4.051q0-7.438 2.225-12.484 1.66-3.72 4.516-6.674 2.888-2.955 6.308-4.383 4.549-1.926 10.492-1.926 10.758 0 17.2 6.674 6.474 6.674 6.474 18.56 0 11.788-6.408 18.461-6.408 6.641-17.133 6.641-10.857 0-17.265-6.607-6.409-6.641-6.409-18.262zm10.127-.332q0 8.268 3.819 12.55 3.818 4.25 9.695 4.25 5.877 0 9.629-4.216 3.785-4.25 3.785-12.717 0-8.367-3.686-12.484-3.652-4.117-9.728-4.117t-9.795 4.183q-3.719 4.15-3.719 12.55zm44.758 24.371v-48.676h15.772q8.964 0 11.687.73 4.184 1.096 7.006 4.782 2.822 3.652 2.822 9.463 0 4.482-1.627 7.537-1.627 3.055-4.15 4.814-2.49 1.727-5.08 2.291-3.52.698-10.194.698h-6.408v18.361zm9.828-40.441v13.812h5.38q5.81 0 7.769-.764 1.959-.763 3.054-2.39 1.13-1.627 1.13-3.785 0-2.657-1.561-4.383-1.56-1.727-3.951-2.158-1.76-.332-7.073-.332zm35.528 40.441v-48.676h36.091v8.235h-26.263v10.79h24.437v8.202h-24.437v13.248h27.193v8.201zm89.25 0H980.2l-4.25-11.057h-19.457l-4.017 11.057H942.05l18.959-48.676h10.392zm-18.096-19.258-6.707-18.062-6.574 18.062z"transform="translate(-1102.015 -54.976)"/></g>
</svg>
